<?xml version="1.0" encoding="UTF-8"?>
<svg version="1.1" viewBox="0 0 2048 1960" width="1280" height="1280" xmlns="http://www.w3.org/2000/svg">
<path transform="translate(472)" d="m0 0h1100l51 14 47 16 29 12 24 11 30 15 23 13 21 13 15 10 17 12 16 12 14 11 11 9 14 12 12 11 13 12 26 26 7 8 9 10 9 11 11 13 15 20 13 18 13 20 13 21 16 28 7 12v1219l-13 24-10 17-13 21-14 21-10 14-9 12-10 13-11 13-9 11-14 15-9 10-20 20-8 7-8 8-11 9-10 9-28 22-18 13-27 18-13 8-17 10-24 13-26 13-25 11-28 11-36 12-30 9-26 7h-1100l-20-6-35-10-44-15-33-14-30-14-23-12-24-14-24-15-23-16-21-16-16-13-13-11-10-9-8-7-10-10-8-7-15-15-7-8-7-7-9-11-9-10-11-14-13-17-13-18-13-20-12-19-16-28-4-6v-1236l10-17 8-14 15-24 10-15 12-17 12-16 11-14 12-14 9-11 7-7 7-8 32-32 8-7 13-12 22-18 17-13 18-13 24-16 23-14 23-13 25-13 31-14 33-13 35-12 44-12z" fill="#F6E3C1"/>
<path transform="translate(1369,222)" d="m0 0h7l18 6 9 2 26 13 22 12 11 7 10 7 22 16 10 8 8 6 12 11 11 9 21 21 8 7 9 10 7 9 14 15 7 8 6 9 4 4 3 6 7 11 7 12 8 16 12 20 8 13 10 18 7 17 6 12 11 23 13 24 11 23 5 15 4 14 2 11 6 23 2 8 6 21 2 10 2 7 1 7 2 3 2 18 2 5 2 19 2 8 2 38 2 15 1 22v91l-1 14-2 7-1 19-4 24-3 13-3 17-4 16-3 16-2 5-3 12-4 13-6 21-10 30-6 16-9 19-8 16-6 13-4 9-9 17-10 17-7 10-20 30-6 10-4 5-10 13-7 10-7 8-6 9-10 11-7 10-7 7-7 8-15 16-8 7-6 8-11 9-7 7-8 7-9 9-11 8-13 11-11 8-18 14-13 9-11 7-16 10-17 10-23 12-20 11-23 11-21 9-10 4-11 4-13 4-14 4-13 4-14 4-25 7-22 5-17 3-19 2-16 2h-111l-36-3-19-1-37-5-54-11-20-5-33-11-21-8-29-12-40-20-19-10-16-8-16-9-37-24-18-14-7-7v-3l8 1 7 2 35 5 19 3 34 4 23 1 19 2h66l26-2 36-2 25-3 39-5 43-7 35-8 24-7 23-6 29-9 24-7 22-8 27-11 12-5 10-4 24-11 19-10 22-12 19-10 19-11 13-8 15-9 15-10 14-10 16-12 14-10 11-8 10-8 10-7 10-9 9-7 10-9 53-53 7-8 11-14 8-9 3-6 11-11 7-10 7-8 5-7 3-5 6-7 7-11 4-7 4-5 8-14 6-11 5-9 8-14 3-5 7-12 4-10 6-11 3-7 5-9 3-7 5-10 3-9 4-9 1-2 1-11 3-6 2-6 2-5 2-8 2-3 2-6 2-5 2-9 3-8 3-9 2-8 2-5 4-18 1-12 2-6 2-18 2-5 2-30 2-13v-74l-2-12-2-28-2-7-3-21-3-13-5 18-1 67-3 26-1 25-3 14-2 15-4 17-3 13-7 27-5 22-5 18-8 22-8 18-7 15-9 19-10 19-8 14-6 11-5 7-3 6-9 14-3 6-7 11-16 24-6 8-4 6-7 8-6 9-6 8-4 6-9 10-7 10-12 12-11 14-8 8-7 8-32 32-10 8-14 12-8 8-14 10-10 9-10 7-8 7-13 9-9 6-5 4-7 4-5 4-15 9-19 10-11 7-10 6-18 10-39 19-19 10-18 7-9 3-10 4-7 3-10 4-14 6-18 6-8 3-10 3-17 5-8 2-5 2-10 2-6 2-11 2-6 2-10 2-8 2-9 1-5 2-19 3-9 2-24 4-21 3-28 3-4 1-37 2-18 2-30 1h-19l-34-1-20-2-27-2-17-3-10-2-16-3-16-4-6-2-16-3-28-7-31-10-25-7-10-4-11-6-25-25-24-32-10-14-11-17-9-14-12-21-12-23-14-28-11-24-8-21-11-26-6-16-7-21-4-14-1-9v-9l5 2 10 6 15 11 10 8 6 4 10 9 17 11 9 5 17 10 24 13 62 31 27 12 24 9 31 10 57 15 45 10 39 7 40 4 17 1h82l31-3 35-2 29-4 18-3 17-3 25-5 30-7 13-3 28-7 17-6 45-14 9-3 16-7 9-4 22-10 12-5 16-8 23-13 12-6 9-5 13-8 12-7 17-11 10-7 11-9 11-8 24-18 10-8 7-7 11-9 14-12 33-33 2-3h2l2-5 13-16 6-10h2l2-5 6-8 5-6 6-9 5-6 5-9 7-10 6-10 8-13 6-10 12-24 8-17 4-8 4-9 5-14 2-3 2-10 2-3 3-9 2-9 6-18 1-1 1-13 3-6 2-13 2-3 1-19 3-16 2-35v-16l-1-8-1-35-3-11-1-16-3-7-1-11-3-6-1-12-3-7-2-7-2-6-2-9-2-3-3-9-3-8-8-16-11-20-3-5-6-11-9-14-8-11-9-10-6-8-9-10-18-18-13-10-11-8-12-10-11-7-9-6-19-10-18-10-10-6-12-6-9-6-5-3-7-5-5-3-4-4z" fill="#080402"/>
<path transform="translate(1006,190)" d="m0 0h54l21 1 76 8 41 7 36 9 32 11 15 5 12 5 9 4 13 5 14 6 32 16 22 14 23 15 11 7 10 7 15 10 10 9 14 11 10 9 8 6 12 10 13 10 4 5v3l-16 8-12 8-6 6h-2l-1 3-5 5h-2l-1 3-11 9-4 4h-2l-2 4-9 8-6-1-14-14-8-11-5-6-8-7-14-14-16-14-12-9-10-8-9-7-11-8-10-7-7-6-11-7-13-8-15-8-16-8-13-6-11-5-8-3-12-5-10-2-7-3-8-3-10-2-9-3-11-3-16-3-18-4-30-3-17-2h-73l-21 3-24 2-40 8-6 2-14 4-22 5-11 3-10 2-15 6-7 3-8 4-11 4-21 11-16 9-8 5-11 7-10 7-12 9-9 7-9 8-11 8-6 5-11 8-7 7-8 7-15 14-8 7-5 5-4 7h-2l-2 4-10 10-4 1-12-9-9-8-7-8-13-15-4-5-3-6-7-11-2-5 7-8 15-15 12-9 12-11 10-7 13-9 17-11 18-11 16-10 25-13 19-10 19-9 17-7 16-5 26-9 16-6 10-4 11-3 19-6 26-7 37-7 56-7 6-1z" fill="#080402"/>
<path transform="translate(794,587)" d="m0 0 7 1 13 5 32 8 43 8 27 3 29 4 3 1 13 1 44 1 2 2 1 7v94l-1 14-1 4v135l2 10-2 4h-13l-17-3-27-1-22-3-22-1-16-3-17-2-8-2-20-2-7-2-16-2-9-2-16-2-7-2-12-2-1-1-17-2-10-3-9-1-6-3-9-2-2-1-1-8 3-10 2-15 2-9 2-15 2-7 2-13 2-5 2-18 2-5 2-11 2-5 1-10 6-15 3-11 5-12 6-18 3-7 5-17 3-7 2-8 6-15 2-7 5-9z" fill="#080402"/>
<path transform="translate(1257,591)" d="m0 0h5l8 16 4 9 3 9 4 13 7 20 2 5 2 8 3 10 3 8 2 9 2 5 1 9 3 8 2 13 2 7 2 18 2 10 1 18 3 19 2 22 2 9v16l-2 1-16 2-3 2-15 2-5 2-12 2-6 2-14 2-6 2-11 1-13 3-19 2-10 2-21 3-8 1-20 1-13 2-12 1h-64l-1-5 1-167 2-29v-18l-2-18-1-24 1-1 25-3 9-1 41-2 7-2 21-2 9-2 18-2 6-2 20-4 14-2 5-2 16-4 10-2z" fill="#080402"/>
<path transform="translate(720,895)" d="m0 0 19 2 28 7 35 7 38 7 62 8 50 5 33 3 19 2 1 79 1 41 2 41v45l-2 1-24 1-23 3-20 1-11 2-16 1-34 1-20 1-64-2-16-1-13-2-18-1-14-3-3-3-4-17-2-17-2-10-4-38-1-24-2-18-1-18v-34l1-30 3-34z" fill="#080402"/>
<path transform="translate(487,798)" d="m0 0 6 1 25 12 16 9 23 11 32 15 10 4 10 5 16 6 9 4 15 6 20 6 6 4v22l-3 38v92l3 21 3 24 5 39v9l-1 3-10-1-10-3-12-5-24-8-10-2-15-4-14-4-16-6-16-8-24-13-14-8-11-7-10-7-11-8-16-11-8-7-9-9v-13l3-18 1-23 3-21 2-16 5-23 1-6 2-23 2-8 2-15 2-7 2-15 6-21 3-9z" fill="#080402"/>
<path transform="translate(625,511)" d="m0 0 4 1 17 9 8 6 21 10 17 9 16 8 9 2 2 2 8 3 24 8-1 9-3 7-6 16-9 23-9 27-7 18-8 27-3 15-4 18-4 20-5 22-3 16-6 39-1 4-6-1-6-3-33-11-11-4-9-2-7-3-11-4-23-9-28-14-23-13-12-7-11-6-2-2v-6l3-7 2-8 2-4 1-7 2-2 2-10 3-1 1-11 9-21 12-24 9-17 5-12 4-7 8-13 6-10 8-12 5-9 4-5 3-6 5-5 3-7 7-11 6-9 7-8z" fill="#080402"/>
<path transform="translate(1433,509)" d="m0 0 5 5 7 8 7 11 9 16 4 6 6 11 14 24 7 11 7 14 9 17 5 12 3 5 3 8 7 17 9 17 8 14 8 10 5 5v17l-5 15-6 8-5-1-7-4h-8l-7 3-8 1-11 6-9 6-17 11-16 8-9 4-9 3-10 5-10 4-21 9-16 8-10 4-3-1-2-9-2-6-2-16-2-8-1-13-2-5-2-21-3-12-2-9-2-7-2-12-2-5-2-12-2-3-1-12-3-7-2-10-2-6-5-17-3-8-6-17-3-8-5-12-5-10-1-6 4-3 23-9 11-4 6-4 16-8 25-14 15-8 22-13z" fill="#080402"/>
<path transform="translate(1e3 1756)" d="m0 0h149l117 1 33 1 21 2 27 2 106 7 19 1h12v-1l12-1h18l-24-2-86-4-7-1 1-2h14l47 2 51 4 39 4 6 1v1h-12v2h31l12 2-2 2-20 2-1 3-9 1-4 2 17-2h6l-3 2-14 4-4 1 8 1v1l-46 5-37 3-39 2-78 2-115 4-72 1h-236l-79-1-137-4-98-4-65-4-45-6-5-1v-1h11l13 1h5l-9-1 4-3 4-1h-40v-1l15-4 20-4 26-3 15-2 82-7 57-3 64-1 33-1z" fill="#080402"/>
<path transform="translate(1320,900)" d="m0 0h5l1 1 3 22 1 12v28l-4 50-7 9-11 7-22 12-23 11-40 20-32 13-33 14-7 2-30 10-28 9-23 7-14 3-3-2-1-4-1-32v-40l1-114 3-5 3-1 74-1 24-3 22-2 36-6 35-5 16-3 13-2 7-2 27-6z" fill="#080402"/>
<path transform="translate(1009,314)" d="m0 0h4v51l-1 79-3 50-1 53-1 22-4 6-8-1-2-1-47-2-7-2-20-2-6-2-19-2-5-2-14-2-5-2-16-2-9-3-8-3-11-2-9-5 1-9 6-9 7-13 11-20 6-9 3-6 5-7 3-5 5-6 3-6 9-9 7-10 9-10 4-4 3-7 22-22 9-11 11-11 8-7 15-14 7-7 16-12 9-6z" fill="#080402"/>
<path transform="translate(1056,312)" d="m0 0 9 2 14 8 11 7 25 25 9 11 8 9 7 8 12 12 20 28 8 10 7 10 5 8 4 5 3 6 7 11 10 19 13 24 9 17 3 8-1 6-10 5-12 4-18 2-5 2-19 3-13 2-11 1-7 2-19 2-7 2-29 2-7 2h-27l-2-3v-52l1-10z" fill="#080402"/>
<path transform="translate(526,420)" d="m0 0 5 1 4 10 7 11 7 9 9 9 16 11 15 10-1 5-4 8-4 5-4 7-7 10-7 11-6 9-8 13-12 19-12 20-15 30-9 19-8 16-8 20-8 24-5 12-4 9-2 3-5-2-15-11-8-7-6-7-8-10-17-17-14-11-4-4v-10l2-11 11-27 15-31 10-18 6-11 10-17 7-11 3-5 7-12 8-10 12-18 4-5 3-6 14-14 7-8 13-12z" fill="#080402"/>
<path transform="translate(1693,987)" d="m0 0h1l-1 10-2 13-2 12-8 31-6 17-4 11-4 12-5 13-2 3-3 9-8 17-11 20-8 13-11 21-13 21-2 2-2 5-6 8-3 5-5 7-3 5-4 5-3 6-9 10-3 6-6 7-6 9-9 10-6 9-7 8-7 10-17 17-11 12-22 22-7 8-13 12-8 7-11 10-8 6-15 12-11 9-8 7-13 10-10 8-11 9-13 9-21 13-10 7-15 11-13 8-14 7-20 11-19 10-17 7-20 8-23 8-22 5-24 4h-26v-3l8-7 8-6 21-12 19-8 30-13 17-8 19-10 24-13 17-9 19-10 13-8 11-8 7-4 10-7 12-8 12-9 11-8 16-11 14-11 9-7 10-9 8-5 13-13 6-5 5-5 14-11 10-11 7-8 9-8 7-10 29-29 5-8 8-9 6-9 8-10 6-8 8-11 10-13 6-8 13-18 6-9 7-11 6-8 7-10 3-6 14-24 5-9 6-9 16-32 3-10 5-12 18-45 7-17z" fill="#F6E3C1"/>
<path transform="translate(950,301)" d="m0 0 3 1-6 7-9 6-18 18h-2l-2 4h-2l-2 4-4 4h-2l-2 4h-2l-2 4h-2l-2 4h-2l-2 4h-2l-2 4h-2l-2 4-12 12-8 10-11 13-10 14-9 12-8 11-7 9-5 6-9 13-9 16-13 23-4 6-3 7-3 6-4 2-16-8-7-4-8-3-16-8-22-10-17-9-9-5-12-11 1-6 41-41h2l2-4 22-16 17-12 21-14 20-13 8-4 19-10 11-5 32-16 17-8 15-5 26-7 17-3z" fill="#080402"/>
<path transform="translate(1124,298)" d="m0 0 5 2 13 3 41 14 20 8 16 7 23 11 14 9 14 7 11 7 14 9 8 5 3 2v2l4 2 10 7 6 5v2l4 2 12 9 20 20 16 12 16 16 2 1v2h2l3 4-2 4-11 10-13 8-8 4-10 4-16 7-8 5-15 8-24 10-5 3-4-1-4-8-5-11-10-19-12-21-6-11-7-11-6-10-9-13-5-9-7-10-7-9-9-10-8-11-11-11-7-11-9-9-11-14-9-10-8-7v-2l-4-2-7-8z" fill="#080402"/>
<path transform="translate(363,711)" d="m0 0 5 1 14 11 9 6 8 8 9 5 8 7 6 3 8 7 6 4 6 5 7 3v12l-3 13-3 16-4 19-3 18-2 8-2 15-2 10-2 20-2 10-1 21-5 31-4 20-4-1-14-15-6-7-10-16-14-24-8-15-7-16-4-11-4-16-4-29v-12l3-26 1-21 3-14 2-14 5-17 3-10z" fill="#080402"/>
<path transform="translate(1545,420)" d="m0 0h2l6 12 3 5 2 7 2 4 2 8 2 5 2 10 2 4 2 9 2 5 2 8 2 5 1 9 3 8 1 14 2 6 1 7 1 27 2 9v30l-2 12-1 16-2 8-3 14-5 5-7-10-6-9-6-11-4-7-8-16-3-5-4-10-8-16-20-38-4-10-4-6-3-6-6-7-7-10-6-9-6-12 1-4 7-6 9-6 11-8 5-5 11-12 6-7 6-4 15-12z" fill="#080402"/>
<path transform="translate(1514,821)" d="m0 0h3l-1 4-8 14-8 11-7 9-7 10-7 8-8 12-9 9-10 14h-2l-2 4-55 55-12 8-5 5h-3l-1-90-1-14 6-4 18-7 8-4 16-6 18-8 37-14 14-5z" fill="#080402"/>
<path transform="translate(1747,1022)" d="m0 0h3l1 4-4 17-2 9-2 10-2 5-2 10-3 8-5 20-3 8-4 15-10 28-20 40-5 11-5 13-16 27-4 7-3 1-2 6-6 8-6 10-6 9-4 7-10 15-9 11-5 8-3 4h-2l-2 4-7 11-9 9-9 13-17 17-5 2-2-3 3-5 3-3 3-5 11-12 8-11 9-10 9-13 7-8 4-6 9-12 7-9 3-6 30-45 14-25 5-10 5-12 9-19 8-16 6-14 12-36 6-21 4-13 4-15 2-6 2-12 4-16h2z" fill="#FDF7D6"/>
<path transform="translate(1534,1407)" d="m0 0 3 1-1 5-7 9-9 9-1 2h-2v2h-2v2l-5 4-5 5-12 9-11 9-10 5h-2l-1 3-9 5-5 6-11 6-5 5-7 3-5 6-8 2-1 3-12 7-7 1-4 1-5 2-5 1v-2l18-10 21-13 10-7 12-8 10-8 8-6 13-10 11-9 13-10 13-13 8-7 10-9z" fill="#FDF6D5"/>
<path transform="translate(1301,328)" d="m0 0h5l12 9 9 6 2 1v2l4 2 11 7 7 7 6 4 4 1v3l4 2 8 7 3 5 5 3 5 4v2h2v2h2v2h2v2h2v2h3v2l4 2 5 6 1 7-3 1-10-8-16-16-4-6v-2l-5-2-11-9-6-3-9-7-10-8-4-4-8-4-11-8-5-5v-2l-4-2-2-3z" fill="#FEF9D8"/>
<path transform="translate(933,319)" d="m0 0h3v2h2l1 6-9 12-7 7-7 8h-2l-2 4-4 4h-2l-2 4h-2v2l-10 8-6 4-4-1 8-14 7-8h2v-2h2v-2h2v-2h2l2-4h2v-2l3-2 2-6 8-7z" fill="#FEF9D8"/>
<path transform="translate(1262,324)" d="m0 0 6 1 9 5 11 9 10 5 10 3 12 8v2l4 2 11 9v2l5 2 8 6 4 5v2h2l2 3v3l-9-3-9-6-5-6v-2l-6-2-10-7-3-3-8-4-13-10-6-4-4-4-5-2-5-4-4-2-4-5z" fill="#FFFAD9"/>
<path transform="translate(1088,324)" d="m0 0h6l9 7 7 6 7 8 16 16 6 5v2h2l5 8 8 9 1 4h-2l-1 2-5-3-6-5-8-10-8-9v-2l-4-2-7-8-8-6-16-16z" fill="#FEF8D7"/>
<path transform="translate(1460,910)" d="m0 0 4 1-4 8-11 12-7 8-9 7h-2l-2 4-8 7-11 9h-2v2l-9 6-1-3 2-4 4-1 1-4 3-4 3-1 3-3 5-4 8-7 4-5 4-8h4l2-4 3-5 7-7 7-3z" fill="#FEF9D8"/>
<path transform="translate(1009,735)" d="m0 0h4l-1 12 1 27v33l-1 24-3 12h-1l-1-15v-63l1-23z" fill="#FFFAD9"/>
<path transform="translate(1501,1167)" d="m0 0 4 2-4 5-3 5-46 46-5-1 1-5 12-12 5-6 8-7 16-15 10-11z" fill="#FEF7D6"/>
<path transform="translate(467,1113)" d="m0 0 10 3 13 5 19 9 15 7 16 8 4 3v3l-5-1-8-3-16-8-13-6-8-4-9-3-18-9z" fill="#FEF8D7"/>
<path transform="translate(1013,645)" d="m0 0 2 1v24l1 8v44l-2 5-3-1v-79z" fill="#FFFAD9"/>
<path transform="translate(1507,1786)" d="m0 0h9l3 3-24 3-31 3-47 3h-15v-1l37-4 41-4z" fill="#F6E3C1"/>
<path transform="translate(1482,954)" d="m0 0 5 1-2 7-29 29-5 3-6 2 1-5 33-33z" fill="#FDF6D5"/>
<path transform="translate(1220,426)" d="m0 0 5 1v5l5 2 3 3v6l5 7 3 7 4 4v3h2l1 6h-2v-2l-4-2-7-6-5-8-3-4-2-8-5-6-2-6z" fill="#FFFAD9"/>
<path transform="translate(1330 1e3)" d="m0 0h3l1 7-5 12-5 5-8 3h-3v2l-9 4-4-1-1-3 16-9 6-5 5-5 1-4h2v-5z" fill="#FEF7D6"/>
<path transform="translate(1293,366)" d="m0 0 5 1 11 6 6 6v2l8 4v2l5 2 6 9v4l-4-2-6-5-5-5-4-3-5-2-5-6-6-4-5-3-2-3z" fill="#FFFAD9"/>
<path transform="translate(1233,334)" d="m0 0 6 2 9 1 8 6 5 5 7 1 10 5 5 5-1 4-6-2-8-5-6-3v-2l-7-2-12-7-2-2-7-2-2-3z" fill="#FFFAD9"/>
<path transform="translate(1008,949)" d="m0 0 3 1 2 16v11l-1 19-1 7-3 1-1-23v-31z" fill="#FFFAD9"/>
<path transform="translate(1017,341)" d="m0 0 3 1 1 4 1 18-2 29-3 5h-1v-53z" fill="#FFFAD9"/>
<path transform="translate(917,384)" d="m0 0 4 2-3 6-15 15-5 1-1-3 5-7h2l3-6h2v-2z" fill="#FFFAD9"/>
<path transform="translate(1522,1288)" d="m0 0h1v5l-6 8-14 10h-2l1-5 4-7 4-2 6-6z" fill="#FFFAD9"/>
<path transform="translate(1374,1524)" d="m0 0h3v2l-12 7-3 3-7 3-12 6-5 3-3 1-3-1 1-3 16-8z" fill="#FCF2D1"/>
<path transform="translate(1250,478)" d="m0 0h2l8 13 4 4 7 15-1 3-4-1-8-16-8-14z" fill="#FFFAD9"/>
<path transform="translate(714,1521)" d="m0 0 7 1 19 10 3 5-5 1-3-4-8-1-8-5-5-5z" fill="#FDF5D4"/>
<path transform="translate(650,521)" d="m0 0h6l4 4 6 1 6 3 8 5 1 3-4 1-3-3-7-3-8-4-7-3z" fill="#FFFAD9"/>
<path transform="translate(1479,414)" d="m0 0h2l-2 5-11 12-10 6v-3l5-6h2l2-4 8-8z" fill="#FFFAD9"/>
<path transform="translate(1481,1123)" d="m0 0 2 2-7 10-11 10-5 5-2 1 2-5h2l2-4 8-12z" fill="#FFFAD9"/>
<path transform="translate(1552,1390)" d="m0 0 5 1-2 5-11 9h-5l1-4 7-7z" fill="#FFFAD9"/>
<path transform="translate(970,337)" d="m0 0 3 1-9 10-4 4-5 1-1-4 4-5 8-5z" fill="#FDF6D4"/>
<path transform="translate(615,1450)" d="m0 0 14 1 7 2 15 2 3 2-2 1-22-2-10-3v-2h-5z" fill="#FCF3D2"/>
<path transform="translate(1349,410)" d="m0 0 5 1 8 9-1 4-4-1-2-1v-2l-4-2-3-4z" fill="#FFFAD9"/>
<path transform="translate(1045,809)" d="m0 0h1l2 25-2 13-2-2v-33z" fill="#FFFAD9"/>
<path transform="translate(1700,566)" d="m0 0 2 1v2l3 1 5 11 2 6 3 7v3h-2l-13-27z" fill="#FDF4D3"/>
<path transform="translate(675,1758)" d="m0 0h11l17 1v1l-29 2h-18v-1z" fill="#FFFAD9"/>
<path transform="translate(1524,757)" d="m0 0 5 1-1 5h-6v-2l-7 3-4-1-2-1v-2l2-1h13z" fill="#FFFAD9"/>
<path transform="translate(1736,673)" d="m0 0 2 3 2 5 2 9 2 3-1 6-4-2-2-13-1-2z" fill="#FAEFCE"/>
<path transform="translate(596,421)" d="m0 0 7 6v2l4 2v4l-5-1-5-6-2-6z" fill="#FFFAD9"/>
<path transform="translate(1072,313)" d="m0 0 6 1 6 4 2 5-3 1-9-6-4-4z" fill="#FFFAD9"/>
<path transform="translate(1676,518)" d="m0 0 4 4 2 7 2 1 3 8 2 4-1 3-2-4-3-3-7-15z" fill="#FAEDCC"/>
<path transform="translate(1427,1009)" d="m0 0 2 4-5 6-7 1 1-5h2l1-3z" fill="#FEF8D7"/>
<path transform="translate(1136,296)" d="m0 0 5 1 8 3v3l2 1-8-1-11-3-1-2z" fill="#FFFAD9"/>
<path transform="translate(806,1565)" d="m0 0h7l5 3 6 2-3 3-5-2-8-2z" fill="#FFFAD9"/>
<path transform="translate(1017,407)" d="m0 0h2l1 2v19l-3 1-1-19z" fill="#FFFAD9"/>
<path transform="translate(891,413)" d="m0 0 4 2v4h-2v2h-2v2l-5-1 1-5z" fill="#FFFAD9"/>
<path transform="translate(1493,872)" d="m0 0 2 1-5 8-5 4-1-4 2-5z" fill="#FFFAD9"/>
<path transform="translate(861,406)" d="m0 0 2 1-2 7-7 6h-2l1-5z" fill="#FFFAD9"/>
<path transform="translate(1007,1143)" d="m0 0h3v2l-6 2-22-1v-1l7-1z" fill="#FFFAD9"/>
<path transform="translate(1325,832)" d="m0 0 4 1v11l-3 1-2-4z" fill="#FFFAD9"/>
<path transform="translate(1272,314)" d="m0 0 8 1 5 4v2l-6-1-7-2-1-3z" fill="#FFFAD9"/>
<path transform="translate(930,322)" d="m0 0v3l-3 4h-2l-2 4h-2l-1 4-4 3-3-1 5-6 8-7z" fill="#F6E3C1"/>
<path transform="translate(986,322)" d="m0 0 4 3-5 6-5 1 2-7z" fill="#FDF6D5"/>
<path transform="translate(442,827)" d="m0 0h2l1 6-2 5h-3l-1-1 1-8z" fill="#FFFAD9"/>
<path transform="translate(1420,430)" d="m0 0 4 1 6 7-4 1-6-4-1-4z" fill="#FFFAD9"/>
<path transform="translate(1208,1588)" d="m0 0h8l-1 3-6 3-6-1v-2h3v-2z" fill="#FDF7D6"/>
<path transform="translate(1332,509)" d="m0 0 4 2-5 5-3 2h-4v-2h-2v-2l7-1 3-1z" fill="#FFFAD9"/>
<path transform="translate(1525,1137)" d="m0 0 5 2-4 6-3 2-2-1 1-5z" fill="#FFFAD9"/>
<path transform="translate(1752 1e3)" d="m0 0h1v10l-2 3h-3l1-10z" fill="#FFFAD9"/>
<path transform="translate(1009,863)" d="m0 0h2l2 6-1 6h-4v-8z" fill="#FFFAD9"/>
<path transform="translate(996,315)" d="m0 0 5 1v4l-7 3-1-3v-3z" fill="#FDF6D5"/>
<path transform="translate(716,898)" d="m0 0h1v11l-2 4-1-3-2-1 1-8h2z" fill="#FFFAD9"/>
<path transform="translate(1366,426)" d="m0 0 5 3 2 2v4l-6-2-1-3h-2v-3z" fill="#FFFAD9"/>
<path transform="translate(1223,1584)" d="m0 0h7l-1 3-7 3-4-2 2-1v-2z" fill="#FEF7D6"/>
<path transform="translate(1174,417)" d="m0 0 5 2 3 3-1 3h-4v-2l-4-2z" fill="#FFFAD9"/>
<path transform="translate(485,1325)" d="m0 0 3 1 7 8 1 4-6-4-4-4z" fill="#FCF3D2"/>
<path transform="translate(1587,648)" d="m0 0 3 1v6l-4 4-1-7z" fill="#FFFAD9"/>
<path transform="translate(1173,1596)" d="m0 0h9l-2 3-9 1-3-1v-2z" fill="#FDF5D4"/>
<path transform="translate(444,810)" d="m0 0h4l-1 8-5 1z" fill="#FFFAD9"/>
<path transform="translate(969,255)" d="m0 0h11l-1 2-8 1h-15l2-2z" fill="#FFFAD9"/>
<path transform="translate(1511,1091)" d="m0 0 1 2-6 7-4-1 2-4h2v-2z" fill="#FFFAD9"/>
<path transform="translate(1192,1592)" d="m0 0h9l-1 3-10 2-3-2z" fill="#FEF7D6"/>
<path transform="translate(638,1454)" d="m0 0h9l7 2-2 2-13-1z" fill="#FDF5D4"/>
<path transform="translate(1620,668)" d="m0 0 3 2-1 7-3 1-1-1v-8z" fill="#FFFAD9"/>
<path transform="translate(634,511)" d="m0 0 9 2 2 5-5-1-6-4z" fill="#FFFAD9"/>
<path transform="translate(1144,1600)" d="m0 0h14l-1 2-3 1h-11z" fill="#FDF6D5"/>
<path transform="translate(444,712)" d="m0 0 5 1 2 1v4h-5l-4-5z" fill="#FFFAD9"/>
<path transform="translate(587,492)" d="m0 0 2 1v6l-1 2h-3l-2-5z" fill="#FFFAD9"/>
<path transform="translate(636,1474)" d="m0 0 4 1 12 8-1 2-5-3-5-2z" fill="#FCF2D1"/>
<path transform="translate(721,1105)" d="m0 0 3 3v8l-1-2-3 1-1-6z" fill="#FFFAD9"/>
<path transform="translate(1179,367)" d="m0 0 4 2 1 3-1 3-4-1-2-2 1-4z" fill="#FFFAD9"/>
<path transform="translate(1517,1073)" d="m0 0h7l-1 5-6 3z" fill="#FFFAD9"/>
<path transform="translate(1752,747)" d="m0 0 2 1 3 8-1 7-3-4z" fill="#FFFAD9"/>
<path transform="translate(1341,1541)" d="m0 0 2 1-6 7-5-1 1-3z" fill="#FBF1D0"/>
<path transform="translate(1291,320)" d="m0 0 4 1 1 2-2 4-5-2-1-4z" fill="#FFFAD9"/>
<path transform="translate(768,1549)" d="m0 0 6 1 4 3v2l-7-1-3-3z" fill="#FFFAD9"/>
<path transform="translate(1748,721)" d="m0 0 2 2 2 6-1 6h-2l-1-6z" fill="#FFFAD9"/>
<path transform="translate(970,1600)" d="m0 0h12l3 2-12 1z" fill="#FFFAD9"/>
<path transform="translate(1515,1328)" d="m0 0 1 3-4 5-4 1 1-5 3-3z" fill="#FCF4D3"/>
<path transform="translate(738,894)" d="m0 0h8l4 4h-7l-6-2z" fill="#FFFAD9"/>
<path transform="translate(1371,490)" d="m0 0 4 1-2 5-6 2-1-4 6-1z" fill="#FEF9D8"/>
<path transform="translate(1236,1580)" d="m0 0h6l-1 3-3 2h-5l1-4z" fill="#FDF5D4"/>
<path transform="translate(1234,549)" d="m0 0 4 1-5 4h-9l4-2z" fill="#FFFAD9"/>
<path transform="translate(937,259)" d="m0 0h11l-2 1v2h-11l2-1z" fill="#FDF7D5"/>
<path transform="translate(1348,1538)" d="m0 0 2 1-5 6h-5l3-5z" fill="#FDF5D4"/>
<path transform="translate(1740,687)" d="m0 0 3 4 1 6-2 2-2-2z" fill="#FFFAD9"/>
<path transform="translate(1681,529)" d="m0 0 3 1 3 8 2 4-1 3-2-4-2-1z" fill="#FEF8D7"/>
<path transform="translate(1264,1573)" d="m0 0h7l-4 4h-7z" fill="#FFFAD9"/>
<path transform="translate(1559,740)" d="m0 0h2v6l-3 5-2-1 2-9z" fill="#FFFAD9"/>
<path transform="translate(1395,481)" d="m0 0v3l-5 4h-3l1-4z" fill="#FFFAD9"/>
<path transform="translate(917,263)" d="m0 0h10l-2 3h-9z" fill="#FCF4D3"/>
<path transform="translate(1708,585)" d="m0 0 4 2 3 7v3h-2l-5-10z" fill="#FAEFCD"/>
<path transform="translate(1274,1569)" d="m0 0h7l-1 3-5 2-3-2z" fill="#FEF8D7"/>
<path transform="translate(404,1075)" d="m0 0 4 2 3 3-2 1-6-2-1-3z" fill="#FDF6D5"/>
<path transform="translate(1520,650)" d="m0 0 4 2-1 5-4-2z" fill="#FFFAD9"/>
<path transform="translate(1623,634)" d="m0 0 3 1v7l-2 2-1-1z" fill="#FFFAD9"/>
</svg>
