<?xml version="1.0" encoding="UTF-8"?>
<svg version="1.1" viewBox="0 0 2048 2048" width="1280" height="1280" xmlns="http://www.w3.org/2000/svg">
<path transform="translate(469,44)" d="m0 0h1106l47 13 50 17 33 14 28 13 20 10 21 12 23 14 16 11 17 12 21 16 10 8 11 9 14 12 15 14 12 11 25 25 7 8 12 14 9 11 12 15 14 19 13 19 14 22 9 15 20 35v1222l-10 18-8 14-14 23-20 30-14 19-13 17-13 15-8 10-15 16-12 13-17 17-8 7-7 7-10 8-10 9-17 13-15 12-19 13-27 18-24 14-22 12-36 18-31 13-28 10-40 13-36 10h-1106l-33-10-24-7-41-14-37-16-33-16-21-11-25-15-22-14-15-11-16-12-13-10-13-11-11-9-14-13-8-7-9-9-8-7-15-15-7-8-10-11-8-10-8-9-10-13-15-20-12-17-10-16-12-19-14-25-4-6v-1238l16-28 13-21 16-24 10-14 12-16 11-14 9-10 8-10 9-10 14-15 30-30 11-9 8-8 10-8 16-13 19-14 17-12 23-15 22-13 25-14 19-10 34-15 39-15 34-11z" fill="#FE8300"/>
<path transform="translate(1369,266)" d="m0 0h8l19 6 10 3 26 13 23 13 19 13 19 14 18 14 10 9 14 12 21 21 8 7 8 8 10 13 11 11 9 11 8 11 6 9 14 24 11 21 16 26 10 18 8 19 4 11 18 33 8 18 10 19 7 22 8 34 6 22 3 18 3 6 3 13 2 7 2 14 2 10 3 19 3 44 2 24v106l-3 23-2 20-9 45-3 9-5 23-16 55-12 35-9 20-12 24-9 21-15 27-29 43-6 11-9 11-13 18-6 7-8 11-11 13-6 8-9 10-8 10-17 17h-2l-2 4-5 5-11 9-16 15-7 7-13 10-16 13-28 21-27 18-19 11-10 6-8 5-25 12-20 11-16 8-24 10-14 5-7 2-30 9-7 1-7 3-7 1-7 3-7 1-3 2-13 2-9 3-12 1-5 2-21 2-13 2h-119l-53-4-36-5-58-12-21-6-38-13-39-16-26-13-3-3-19-9-23-11-23-13-21-14v-2l-5-2-14-9-11-9-7-7v-3l9 2 19 3 25 3 28 4 17 2 42 3h79l59-4 63-8 46-8 33-8 47-13 43-13 20-7 31-12 35-15 27-13 22-12 28-15 22-13 23-14 19-13 19-14 18-13 28-21 9-7 9-8 9-7 7-6 8-7 39-39 9-11 7-8 11-14 5-6 4-6 9-9 10-14 7-8 8-12 7-9 10-16 8-13 13-24 14-24 22-44 9-20 6-15 2-13 5-12 4-13 4-9 6-19 9-30 3-17 5-32 2-11 2-26 1-6v-81l-2-17-2-22-3-16-4-21-4 14-2 73-2 17-2 32-3 15-3 18-9 37-11 45-9 27-12 27-16 34-12 22-11 19-6 10-22 36-15 22-12 16-7 9-12 17-9 10-8 11-11 11-11 14-9 9-7 8-36 36-9 7-15 13-10 9-11 8-9 8-11 8-10 8-19 13-24 16-26 14-21 13-24 13-29 14-23 12-30 11-39 16-36 12-31 9-46 11-38 7-21 4-35 5-37 4-32 2-9 1-21 1h-47l-23-1-45-4-43-8-22-6-24-5-26-7-28-9-24-7-16-8-19-19-6-8-4-2-28-38-17-26-11-18-12-22-15-29-13-27-11-27-15-37-12-36-3-13v-13l7 3 10 6 21 16 12 9 8 7 21 13 28 16 11 6 8 5 15 7 23 11 26 13 28 12 22 8 32 10 58 15 41 9 41 7 44 4h97l35-3 29-2 40-6 38-7 48-11 32-8 36-12 32-10 54-24 23-11 25-14 21-11 16-10 18-11 17-12 11-9 19-14 30-23 5-6 11-9 13-11 8-7 22-22 2-4 2-1 3-6 11-13 7-11 2-1 3-6 11-14 8-11 8-13 10-15 13-22 10-19 19-39 7-19 3-9 5-13 6-21 3-8 2-15 3-8 2-11 1-1 3-28 2-15 1-18v-31l-2-40-2-7-2-19-2-5-2-13-2-4-3-17-6-19-7-20-12-25-15-27-11-18-12-16-9-10-7-9-14-15-8-8-20-15-10-8-12-9-18-11-28-15-19-11-13-7-12-8-11-8-3-3z" fill="#070302"/>
<path transform="translate(999,234)" d="m0 0h70l25 2 65 7 41 7 35 9 47 16 31 13 21 9 28 14 17 11 40 26 22 15 10 9 14 11 10 9 13 10 16 13 8 7 1 5-20 11-11 8-5 4-6 7-5 5-13 11-5 5-8 7-6-1-16-16-9-12-24-24-11-9-8-7-30-23-18-13-10-8-23-14-27-14-28-13-21-8-11-3-14-5-19-5-17-4-23-5-45-5h-82l-24 3-20 2-25 5-12 2-18 6-30 7-19 5-42 18-28 15-24 15-19 14-13 10-9 8-12 9-17 13-10 10-8 7-15 14-6 5-5 8-14 14-5 1-16-13-10-10-9-11-9-10-7-13-4-6-1-4 7-8 18-18 12-9 7-7 20-14 23-15 23-14 13-8 35-18 16-8 15-7 19-7 36-12 26-10 41-12 21-5 33-6 55-7z" fill="#070302"/>
<path transform="translate(794,631)" d="m0 0 11 2 15 5 28 7 45 8 48 6 13 2 51 2 2 2 1 4v103l-1 10v140l1 8-2 3h-15l-12-2-33-2-15-2-28-2-33-5-10-2-18-2-16-3-35-6-19-4-18-3-15-3-11-4-5-2-1-9 3-12 6-37 6-28 2-15 5-19 3-15 6-16 6-17 9-25 10-31 10-27z" fill="#070302"/>
<path transform="translate(1256,635)" d="m0 0h6l9 17 7 19 10 30 5 16 6 19 6 24 5 23 4 27 2 24 3 21 2 19 1 4v18l-7 2-12 2-6 2-12 2-26 6-22 4-24 4-27 4-22 3-27 2-16 2h-69l-1-3v-78l1-97 1-15v-31l-2-26v-11l6-2 25-3 37-2 39-5 26-4 22-5 17-3 18-5 13-3z" fill="#070302"/>
<path transform="translate(720,939)" d="m0 0 21 2 33 8 57 11 36 5 49 6 83 8 5 1 2 102 2 50v54l-1 1-29 2-16 2-26 2-17 2-52 2h-24l-56-2-42-4-12-3-4-5-4-20-5-37-2-19-2-33-2-24v-53l1-23 3-30z" fill="#070302"/>
<path transform="translate(487,842)" d="m0 0 9 2 23 11 18 10 29 14 29 13 20 9 28 11 11 4 16 5 5 4v27l-2 26v103l10 77v13l-1 2-11-1-15-5-19-7-13-4-21-5-20-6-19-8-25-13-24-14-11-7-14-10-20-14-10-9-8-8v-16l2-12 2-29 6-41 4-19 3-28 6-31 3-17 8-26z" fill="#070302"/>
<path transform="translate(625,555)" d="m0 0 9 3 14 8 9 6 23 11 19 10 11 5 8 3 19 7 14 5-1 10-16 41-14 40-5 14-7 24-14 66-5 26-6 38-1 2-9-2-16-6-33-11-13-4-38-15-26-13-24-14-21-12-2-2v-7l7-21 5-16 2-1 2-12 11-25 12-24 8-15 4-10 17-28 12-19 7-11 7-9 5-10 10-15 9-10z" fill="#070302"/>
<path transform="translate(1432,553)" d="m0 0 7 6 7 8 8 13 10 17 14 24 11 19 6 10 16 32 7 15 9 22 15 28 13 16 1 1v18l-5 15-6 7-7-2-4-2h-10l-5 2-12 3-15 9-20 13-23 11-13 5-18 8-23 10-19 9-5 1-2-1-4-14-3-19-3-21-2-9-3-21-6-25-6-27-1-1-3-17-7-24-5-16-10-28-8-18-3-8 1-4 4-3 34-13 10-6 25-13 16-9 18-10z" fill="#070302"/>
<path transform="translate(961,1800)" d="m0 0h235l85 1 33 2 70 5 78 5h22l13-2-81-4-15-1-4-2 1-1h25l41 2 60 5 28 3 3 2h-12v2h34l8 2-1 2-20 3-1 2-8 2 17-1-1 2-16 5 5 1v1l-24 3-41 4-48 3-190 6-51 1h-305l-58-1-133-4-94-4-61-4-44-6-3-2h21l2-3-35-1 2-2 21-5 17-3 42-5 71-6 54-3 91-2 67-1z" fill="#070302"/>
<path transform="translate(1318,944)" d="m0 0h7l2 5 3 25v38l-3 38-2 5-7 7-13 8-6 2 2 5-22 12-23 11-34 17-30 12-36 15-49 16-36 11-13 3-4-1-2-3-1-20v-106l1-63 5-5 80-2 51-6 37-6 38-6 25-5z" fill="#070302"/>
<path transform="translate(1008,358)" d="m0 0h5v85l-1 52-2 34-2 71-1 14-4 5-20-2-38-2-10-2-17-2-9-2-16-2-14-3-20-4-12-3-12-4-12-3-6-4 1-10 9-14 10-19 15-25 10-14 6-9 7-7 10-14 10-10 4-8 22-22 8-10 18-18 8-7 9-7 10-11 9-6 3-1 5-5 10-6z" fill="#070302"/>
<path transform="translate(1056,356)" d="m0 0 10 2 17 10 7 5 7 8 9 9 8 7 9 10 7 8 12 14 11 11 12 17 9 12 13 18 7 10 8 14 6 10 18 34 11 20 3 8-1 7-12 6-9 3-20 3-20 4-29 4-30 5-32 3-4 1h-28l-2-2v-57l1-49 1-95z" fill="#070302"/>
<path transform="translate(526,464)" d="m0 0 6 2 5 12 10 14 10 11 31 21 1 3-4 10-7 10-7 11-10 15-24 38-13 22-20 40-11 23-11 28-8 23-7 16-3 2-6-3-17-13-9-9-8-10-9-10-8-8-14-11-5-5v-12l3-12 11-27 15-31 13-23 12-21 9-14 9-15 8-10 16-24 7-8 9-9 7-8 11-11z" fill="#070302"/>
<path transform="translate(1692,1031)" d="m0 0h2l-1 14-4 24-8 30-17 48-5 11-5 12-15 29-10 16-11 21-12 19-7 11-12 18-7 10-4 6-7 9-4 6-9 12-9 11-9 12-9 11-6 8-22 22-7 8-23 23-6 7-8 7-12 11-8 7-13 10-22 18-12 10-13 10-11 9-12 9-17 11-16 10-16 12-17 11-16 8-28 15-19 9-31 12-20 7-29 6-12 2h-30l1-5 14-11 21-12 25-11 30-13 32-16 23-13 35-18 17-11 10-7 11-7 19-13 16-12 16-11 13-10 14-11 10-9 9-6 13-13 8-7 17-14 13-14 5-6 8-7 7-10 28-28 6-9 7-8 7-10 14-18 10-14 14-18 13-19 10-15 13-18 14-25 11-19 7-11 13-26 6-18 12-29 12-30z" fill="#FE8300"/>
<path transform="translate(949,345)" d="m0 0 3 1-2 4-8 7-11 8-10 10-6 5-4 6-5 4-6 7-6 5-6 7-15 15-8 10-11 13-12 17-15 20-11 14-10 14-14 25-11 19-8 15-5 2-23-12-16-7-23-11-16-8-15-8-10-9-3-3 1-6 46-46 19-14 17-12 30-20 16-10 27-14 23-11 33-16 22-7 23-6 16-3z" fill="#070302"/>
<path transform="translate(1124,342)" d="m0 0 22 6 41 14 26 11 30 14 14 9 17 9 31 20 4 4 14 10 4 5 9 6 10 9 15 15 16 12 16 16 3 2v2l4 2 1 3-7 8-7 6-15 9-25 11-12 6-18 10-24 10-3 2-5-1-8-16-14-27-12-21-9-15-12-19-6-9-9-14-11-14-8-9-9-12-9-9-8-12-10-10-11-14-6-7-8-7-5-5-6-7z" fill="#070302"/>
<path transform="translate(363,755)" d="m0 0 7 2 14 11 8 6 8 7 11 7 6 5 9 6 10 8 9 6 4 2v14l-6 29-5 25-4 21-4 26-3 23-2 27-7 40-2 8-5-2-11-11-9-11-13-21-13-23-8-16-8-20-5-21-3-22v-19l3-31 1-14 6-31 7-23z" fill="#070302"/>
<path transform="translate(1544,464)" d="m0 0 4 1 8 15 8 24 3 12 9 29 2 12 2 5 2 17 2 8 2 33 1 4v35l-3 27-5 20-4 4-3-1-12-18-14-26-8-16-12-25-15-29-10-20-6-10-8-10-10-15-5-10 1-5 9-8 12-8 10-8 9-10 11-12 11-8z" fill="#070302"/>
<path transform="translate(1513,865)" d="m0 0h4l-2 6-8 14-9 12-14 19-6 7-7 10-8 8-10 14-62 62-12 8-3 3h-3l-2-104 7-5 20-8 29-12 27-11 38-14z" fill="#070302"/>
<path transform="translate(1501,1830)" d="m0 0h16l2 3-11 2-49 5-32 2h-25l3-2z" fill="#FE8300"/>
</svg>
