<?xml version="1.0" encoding="UTF-8"?>
<svg version="1.1" viewBox="0 0 1600 1520" width="1280" height="1280" xmlns="http://www.w3.org/2000/svg">
<path transform="translate(1117,158)" d="m0 0h8l15 5 26 11 24 13 7 4 12 8 10 7 11 8 15 13 13 11 8 7 13 13 9 10 5 5 16 17 8 9 9 12 10 11 7 10 6 11 3 9 6 9 8 13 8 14 6 10 6 11 8 16 5 13 28 56 8 20 7 28 6 25 5 16 4 17 3 15 3 18 2 6 2 30 2 17v12l3 31 1 28v26l-2 33-6 52-8 36-3 8-5 25-3 6-4 17-4 11-4 14-6 16-8 20-4 7-9 19-7 15-7 14-8 13-7 12-8 11-7 11-9 14-7 10-9 11-7 10-5 6-6 8-8 9-4 6-9 10-1 2h-2l-2 4-12 13-14 14-7 8-10 8-12 11-7 7-10 7-11 10-10 7-11 8-13 10-11 7-7 5-5 3-21 12-10 6-9 5-9 4-23 12-19 9-28 11-33 10-29 9-20 5-28 5-17 2-15 1h-105l-40-3-33-4-43-8-25-6-21-6-29-10-9-4-22-9-32-16-19-10-19-9-26-16-11-7-9-6-16-12-9-8-1-3 5-1 16 3 10 2 2 1 21 2 12 2 14 1 5 2 43 2 20 2h35l22-2 34-1 11-1 11-2 33-4 12-1 17-3 29-5 32-8 17-5 9-2 6-2 19-5 9-3 5-2 8-2 24-7 11-5 9-3 11-5 16-7 16-6 28-14 12-7 17-9 12-6 10-6 11-7 13-8 15-9 17-12 11-8 13-10 5-3 9-7 13-10 9-7 14-12 6-5 8-7 28-28 6-7 6-5 6-9 8-7 7-9 8-9 3-6 9-10 8-11 4-4 8-10 16-24 5-9 7-14 12-20 16-28 3-9 12-22 5-10 5-16 7-25 5-12 4-10 4-13 6-18 6-24 2-15 1-15 3-15 2-15 1-24v-64l-2-17-4-22-3-4-3 46-1 27-3 29-6 35-6 24-4 15-10 39-9 22-13 29-9 20-5 8-3 6-12 21-10 17-11 18-5 8-2 1-3 7-5 6-3 5-4 4-3 6-6 5-9 14-4 5-4 6-8 8-8 11-6 8-5 5-16 17-7 9-12 12-13 12-4 5-11 8-11 10-5 4-4 5-11 7-12 10-11 9-15 11-36 24-16 8-18 11-15 9-6 1-1 3-13 5-22 12-19 9-9 5-14 4-12 5-30 12-27 9-29 8-22 6-38 8-39 7-47 7-56 4-28 1h-34l-28-1-14-2-22-2-42-8-42-10-31-9-15-5-24-7-13-7-19-19-9-11-11-14-11-15-14-21-12-19-11-20-10-19-10-21-14-31-6-16-8-17-12-36-3-11-2-17 3-1 8 4 12 9 9 7 12 9 13 10 11 7 13 8 16 9 19 10 10 5 15 8 14 6 17 9 25 11 10 4 9 2 12 5 9 2 12 5 13 2 14 5 20 4 7 3 19 3 21 5 22 3 20 4 16 1 32 1 17 1h24l58-2 17-1 36-6 24-3 16-4 9-1 27-6 21-5 6-2 16-3 29-10 16-4 9-4 14-4 12-5 15-7 16-7 18-8 10-6 16-8 12-7 8-3 4-4 6-3 19-12 16-10 18-14 10-9 11-7 10-9 10-8 9-8 8-7 10-9 10-10 5-4 7-8 8-9 7-8 6-7 3-6 8-10 7-10 5-5 7-10 14-21 3-6 6-9 5-7 4-9 5-9 6-11 3-9 11-22 4-12 4-11 3-10 3-7 3-14 2-2 3-11 2-17 5-16 2-33 1-8v-30l-3-46-5-25-6-27-6-22-7-19-8-17-5-8-12-21-6-10-11-15-9-10-8-10-11-13-3-3-14-11-15-13-10-7-11-8-22-12-7-4-2-2-9-3-3-3-12-6-15-10-11-7-7-6 1-4zm286 719-6 15-3 5-15 39-7 16-13 23-8 13-5 10-10 16-13 19-5 6-4 7-7 10-14 19-6 9-9 10-7 10-9 12-13 16-7 8-16 16-10 13-27 27-10 7-15 15-8 7-10 7-8 8-19 14-17 12-10 7-10 8-11 7-29 19-46 25-20 10-15 8-26 12-26 11-19 10-14 10-5 5v2h24l40-8 13-5 13-4 19-8 13-5 18-10 22-12 14-8 17-12 21-14 20-13 17-14 17-13 15-13 14-11 15-12 5-5 16-15 43-43 7-8 11-14 9-12 7-8 8-11 7-11 8-9 7-11 7-10 7-11 8-13 14-24 6-12 8-13 14-27 3-6 4-13 4-9 11-30 5-19 4-16 1-10z" fill="#06507E"/>
<path transform="translate(1281,888)" d="m0 0 1 4-3 4-3 9-7 6-9 14-4 5-4 6-8 8-8 11-6 8-5 5-16 17-7 9-12 12-13 12-4 5-11 8-11 10-5 4-4 5-11 7-12 10-11 9-15 11-36 24-16 8-18 11-15 9-6 1-1 3-13 5-22 12-19 9-9 5-14 4-12 5-30 12-27 9-29 8-22 6-38 8-39 7-47 7-56 4-28 1h-34l-28-1-14-2-22-2-42-8-42-10-31-9-15-5-24-7-13-7-19-19-9-11-11-14-11-15-14-21-12-19-11-20-10-19-10-21-14-31-6-16-8-17-12-36-3-11-2-17 3-1 8 4 12 9 9 7 12 9 13 10 11 7 13 8 16 9 19 10 10 5 15 8 14 6 17 9 25 11 10 4 9 2 12 5 9 2 12 5 13 2 14 5 20 4 7 3 19 3 21 5 22 3 20 4 16 1 32 1 17 1h24l58-2 17-1 36-6 24-3 16-4 9-1 27-6 21-5 6-2 16-3 29-10 7-2 13-2 23-8 20-9 25-11 23-11 3-2h5l-2 4-5 5-6 1-13 5-4 2v2l-11 5-11 3-12 6h-3v2l-5 2-6 4-15 5-2-1v2l-19 5-9 3-16 6-24 8-13 2-6 2-13 2-6 2-9 2-16 6-6 3-12-1-7 3-2 5 6 1 11-1 4-2 21-1h10l1-4 14 1 10-1 17-3 7-2 1-2 10-2 4-2 28-4v3l5-2h3l-1-3 7-1-2 4 6-1 5-1 2 1 21-8 6-2h16l4 1 1 2 8-1 1 4 5-2 16-2 4-3 1-1-2-6v-4h2l-1-3 6-1-1-3 5-2 3-3 4 4v2h4v-2h4v-3h2v-2l3 1 1 3-1 5-5 1 5 5-1 6-7 8-12 6 1-4 4-4-5 1-5 5h-2l-2 4h-2v2l-5 4h-3l-2 6-4 2-2 6 3 1 21-11 7-5 9-5 5-4h2l1-3 4-1 7-5v-2l8-4 3-2h3v-2l8-4 12-8h2v-2l7-4 13-10 16-12 16-13 3-1 1-3 10-8 1-2h2l2-4 11-9 12-8h2l1-3h2v-3l11-7 5-4 10-7 13-13h2l2-4 2-2h3v7l3 3h3l2-4 6-7 7-6 3-5z" fill="#044E7D"/>
<path transform="translate(1117,158)" d="m0 0h8l15 5 26 11 24 13 7 4 12 8 10 7 11 8 15 13 13 11 8 7 13 13 9 10 5 5 16 17 8 9 9 12 10 11 7 10 6 11 3 9 6 9 8 13 8 14 6 10 6 11 8 16 5 13 28 56 8 20 7 28 6 25 5 16 4 17 3 15 3 18 2 6 2 30 2 17v12l3 31 1 28v26l-2 33-6 52-8 36-3 8-1-4 3-19 1-9-3 5-3 9-7 8-4-2-6-7-10-7-7-11v-2l-6-1-1 6h-2l-1 13-1 4h-2l2-17-3-1-3 10-3 6-5 11-4 11h-1v-6l5-13v-6h-2v-2h6l-1-4-12-3-2-4-3-1-1-6-8 1-3 5-7 1h-3l2-7 3-7h3l-1-5h-2l1-9 3-5 4-6 5-12v-3h2v-11l-3 7h-2l-3 9-13 26-9 19-11 19-8 14-10 18-6 9-1-2 9-17 3-7 6-9 9-16 9-15 5-13 12-22 5-10 5-16 7-25 5-12 4-10 4-13 6-18 6-24 2-15 1-15 3-15 2-15 1-24v-64l-2-17-4-22-3-4-3 46-1 27-3 29-6 35-6 24-4 15-10 39-9 22-13 29-9 20-5 8-3 6-12 21-10 17-11 18-5 8-2 1-3 7-5 6-3 5-4 2 2-4 1-5-3 1-4 6-10 9-4 6-4 1-3-5 1-6-5 3-4 4h-2l-2 4-11 11-11 7-11 8h-2v3l-5 4-12 8-11 9-2 3h-2l-1 3-10 8-5 5-16 13-32 24h-3v2l-16 10-6 2v2l-12 6v2l-9 6-4 1-4 4-10 7-9 5-16 9-6 3-4-2 2-6 2-2h3l2-6 5-3 3-1v-2l4-4h2l2-4 6-3 2 1-2 4h-2v3l11-6 6-7 1-6v-2l-6-2 2-2h5v-5l-1-3-2-1v2h-2v3h-4v2h-4l-2-4-3-1-3 4-3 1v2l-5 2v2h-2l2 5v5h2l-1 2-5 2-1 1-16 2-5 1-1-3-8 1-1-3h-20l-20 7-7 3-6-1-3 2h-5l3-5-6 2v2l-5 2h-3l-1-2-17 3-13 2-9 3-5 2-9 3-14 2-12 1-11-2-1 4-31 2h-3l-1 2-14 1-4-2 2-5 4-3 7-1 9 1 9-4h3l1-2 11-4 10-2 6-2 14-2 8-2 9-2 13-4 20-7 7-3 7-2 16-4h3v-2l6-1 15-6 3-3h4v-2l17-8 9-2 8-4h3v-2l7-4 12-5 5-1 2-3h2l1-3-6 1-19 10-30 13-20 9-26 9-4-1 11-4 9-3 25-10 8-4 16-7 18-8 10-6 16-8 12-7 8-3 4-4 6-3 19-12 16-10 18-14 10-9 11-7 10-9 10-8 9-8 8-7 10-9 10-10 5-4 7-8 8-9 7-8 6-7 3-6 8-10 7-10 5-5 7-10 14-21 3-6 6-9 5-7 4-9 5-9 6-11 3-9 11-22 4-12 4-11 3-10 3-7 3-14 2-2 3-11 2-17 5-16 2-33 1-8v-30l-3-46-5-25-6-27-6-22-7-19-8-17-5-8-12-21-6-10-11-15-9-10-8-10-11-13-3-3-14-11-15-13-10-7-11-8-22-12-7-4-2-2-9-3-3-3-12-6-15-10-11-7-7-6 1-4z" fill="#0496D0"/>
<path transform="translate(788,127)" d="m0 0h43l36 2 36 4 41 6 33 7 19 5 13 4 34 13 23 10 25 10 10 6 11 6 11 7 8 6 13 7 23 16 10 7 9 7 8 7 9 7 10 9 16 12 10 9 7 6 1 6-4 5-9 3-12 9h-2l-2 4-8 7-5 6-10 8-9 10-5 5h-6l-14-12-10-13-7-8v-2l-4-2-9-8-11-9-10-10-16-12-11-9-18-12-12-10-18-11-6-4-10-4-17-9-8-3-12-6-10-3-11-4-20-6-19-5-17-4-32-6-7-1-24-1h-62l-27 2-15 2-25 5-42 11-24 5-19 7-17 8-19 10-16 8-14 9-20 13-13 10-13 11-6 4-8 7-13 10-8 7-6 7-8 7-12 12-7 8-7 7-7 4-5-1-13-12-17-17-9-11-6-9-6-12 2-4 7-8 14-14 14-11 9-7 8-7 5-4 8-4 27-18 11-7 18-10 10-6 23-11 14-6 9-4 10-3 11-4 13-4 15-5 11-5 20-7 16-4 13-4 21-5 21-4 13-1 14-3 28-3z" fill="#0497D1"/>
<path transform="translate(588,493)" d="m0 0h7l18 6 18 3 5 3 32 4 4 2 22 3 17 1 20 4 17 2 30 1 5 1 1 2v114l-1 56v49l1 25-1 1-15-1-29-1-28-3-3-1-36-3-18-3-10-2-27-3-7-3-34-5-5-2-22-4-12-3-4-2-9-2-2-2 1-19 2-9 3-12 4-26 4-18 3-17 7-26 9-27 4-11 5-12 4-15 7-22 4-8 4-9z" fill="#057BB5"/>
<path transform="translate(1011,494)" d="m0 0 5 2 6 10 8 19 5 16 7 20 3 8 7 23 7 29 4 28 2 13 3 41 2 12 3 4v16l-3 2-12 2-21 5-38 9-35 5-18 3-26 2-36 4-35 2h-20l-7-2-1-1v-13l1-24v-22l-1-55v-52l1-14v-24l-2-21v-11l3-5 3-2 43-2 26-3 17-3 18-2 13-4 24-4 14-4 17-2 12-4z" fill="#0697D1"/>
<path transform="translate(522,775)" d="m0 0h9l23 5 5 2 19 3 26 5 20 3 4 2 15 2 29 3 20 3 67 6 20 3 2 3 1 79 2 63v43l-2 1-23 2-29 4-29 2-41 2h-39l-25-1-10-1h-9l-38-4-7-3-3-5-3-9-4-29-2-17-2-19-3-35v-82l1-22 2-8z" fill="#044E7D"/>
<path transform="translate(308,685)" d="m0 0 10 3 7 3 16 8 21 11 19 9 15 7 13 6 7 3 8 4 12 5 9 3 13 6 12 3 8 5 1 1v29l-1 46-1 27v23l1 23 2 23 3 12 3 26 1 19-2 1-35-12-24-7-17-5-20-6-18-8-33-18-9-6-8-6-8-5-14-10-15-10-7-7-1-2v-23l2-13 1-20 3-17 2-19 4-23 4-31 7-33 3-9 4-14z" fill="#054F7D"/>
<path transform="translate(433,422)" d="m0 0 5 1 13 7 10 6 8 5 9 3 5 4 10 4 4 3 11 4 2 2 15 5 4 3 18 5 3 4v6l-12 33-11 27-8 21-7 23-5 24-5 23-5 21-4 20-4 28-2 9-1 2-7-1-3-2-18-5-10-3-24-8-28-11-21-9-20-10-23-13-13-8v-7l9-29 5-17 3-9 5-11 10-21 10-19 3-9 10-17 8-12 8-13 10-16 5-7 4-7 8-11 6-9z" fill="#047BB5"/>
<path transform="translate(1167,421)" d="m0 0h7l11 13 4 7 7 11 9 15 9 16 10 17 8 14 5 11 10 21 5 12 4 9 7 15 6 12 13 17 2 2 1 14-3 15-7 9-3 1-6-3h-12l-19 6-8 6-11 8-5 4-19 9-15 6-20 9-8 3-4 3-10 3-15 7h-7l-2-2-6-32-2-14-3-22-5-21-7-31-5-21-5-18-10-30-6-16-5-10-4-11v-5l16-8 16-5 5-3 7-3 18-10 23-12 13-8 11-6z" fill="#0497D1"/>
<path transform="translate(1069,777)" d="m0 0 4 2 4 13 1 23v22l-1 26-2 17-3 9-8 6-20 11-23 11-20 10-32 15-12 5-29 12-11 4-26 9-9 2-12 5-20 6-21 5-4-2-2-4-1-107v-62l5-6 2-1 76-3 25-2 12-2 8-2 32-4 13-3 27-3 14-4 20-3z" fill="#06507E"/>
<path transform="translate(784,243)" d="m0 0h5l2 4v87l-2 49-3 31v21l-1 12-1 35-2 4-26-4-9-1h-13l-13-2-18-2-12-3-29-4-14-4-19-4-19-6-2-4 1-10 11-19 12-22 8-14 8-10 4-6 3-5 9-11h2l2-4 9-11 7-10 9-10 11-12 7-8 24-24 14-11 10-8 14-10z" fill="#0497D1"/>
<path transform="translate(829,239)" d="m0 0 6 1 12 8 14 10 10 9 14 14 9 11 17 17 13 17 14 19 8 11 10 15 9 15 9 19 8 14 11 18 7 14-1 5-16 8-32 7-18 2-12 2-5 1-8 2-43 4-34 4-7-1-3-3v-51l2-13v-62l1-107 1-7z" fill="#0497D1"/>
<path transform="translate(594,501)" d="m0 0 1 2 7 1 8 4 8 3 13 1 16 2h6l-1-2 13 2 6 1 4-1-39-7v-1l17 1 15 2 4 2 22 3 17 1 20 4 17 2 30 1 5 1 1 2v114l-1 56v49l1 25-1 1h-5l2-2-1-7v-23l-1-49v-26l-1-6-6-4-4-9-10-15-6-4-9-2-3-2-13 2-2 1-10 1-5 2h-9l-4-1-13 6-10 2-7 1h-13l-9-1-7-1-7-2-11-1-7-3-7-2v-2l-2-1-2-3-11-4-5-11v-2l-4-1-2-3h-2l-3-5v-3l-7 4-2 1-1-10 5-20 3-3 2 9 11-3 8 1 4 2-3-3-5-2-5 1-2-3-1-5-3-3-1-8 2-13 3-9 3-8 2-10 4-6z" fill="#0497D1"/>
<path transform="translate(343,339)" d="m0 0 4 2 9 14 8 11 7 7 10 8 11 7 9 7 1 4-7 14-7 11-6 9-7 10-6 10-11 18-9 14-10 17-9 17-6 14-3 5-9 19-4 9-3 11-2 9-3 1-3 14-4 5-4 10-4 1-6-4-5-4-11-9-9-10-26-26-13-10 2-19 7-20 8-17 11-23 9-17 7-11 4-8 8-13 7-12 8-10 8-13 9-11 8-11 21-21z" fill="#037AB5"/>
<path transform="translate(1287,776)" d="m0 0 5 1 9 9 3 8 3 3-2 5-6 8-4 3h-3l-2 4-5 3h-2l-1 9-1 13-3 10-2 2h-3l-1 4-6 4v2l3 1 1-3h2l1 2v10l-1 3 12-3 3-1v-2h2l2-4 5-1v-2h2l-1 6-11 16-4 4h-4l-4 6-10 9-4 6-4 1-3-5 1-6-5 3-4 4h-2l-2 4-11 11-11 7-11 8h-2v3l-5 4-12 8-11 9-2 3h-2l-1 3-10 8-5 5-16 13-32 24h-3v2l-16 10-6 2v2l-12 6v2l-9 6-4 1-4 4-10 7-9 5-16 9-6 3-4-2 2-6 2-2h3l2-6 5-3 3-1v-2l4-4h2l2-4 6-3 2 1-2 4h-2v3l11-6 6-7 1-6v-2l-6-2 2-2h5v-5l-1-3-2-1v2h-2v3h-4v2h-4l-2-4-3-1-3 4-3 1v2l-5 2v2h-2l2 5v5h2l-1 2-5 2-1 1-16 2-5 1-1-3-8 1-1-3h-20l-20 7-7 3-6-1-3 2h-5l3-5-6 2v2l-5 2h-3l-1-2-17 3-13 2-9 3-5 2-9 3-14 2-12 1-11-2-1 4-31 2h-3l-1 2-14 1-4-2 2-5 4-3 7-1 9 1 9-4h3l1-2 11-4 10-2 6-2 14-2 8-2 9-2 13-4 20-7 7-3 7-2 16-4h3v-2l6-1 15-6 3-3h4v-2l17-8 9-2 8-4h3v-2l7-4 12-5 5-1 2-3h2l1-3-6 1-19 10-30 13-20 9-26 9-4-1 11-4 9-3 25-10 8-4 16-7 18-8 10-6 16-8 12-7 10-3 13-8 6-1-5 7h-3v2l-2 1-1 2-4 2v3h12l17-3 10-3 8-5 12 3 7 1 4-4 7-4h3l1-4 3-2 14-4v2h3v-2l8-2 1-5 5-5h2l2-5 5-5 9-1 1 1v5l5-1 5 2-12 12-9 5h-2v2l-10 5h-6l-8 5h-2l-2 4-2 6v2l6 2 7-10 4-4 10-5 5-4 10-5 3-5 5-2 7-7h3l1-3 7-5 3-6-1-3-3 2-3-1 1 9-3 3-2-1 2-4-3-1-7 2-6-4v-3l-4-2-3-8-4-2-1-7 8-16h1v5l1-1 5-10 5-4h2l2-4 9-10 5-13 9-5 8-7 9-11 4-2 2-4h2l2-6 2-3h2l2-6 5-9 2-2 2-1 1-5z" fill="#0379B4"/>
<path transform="translate(888,228)" d="m0 0 9 1 18 4 36 13 10 4 8 3 21 10 18 10 40 24 12 9 13 10 10 9 8 6 13 13 11 9 12 9 18 18 1 5-5 6-11 8-14 9-25 11-14 8-23 10-8 3-2 2h-8l-5-6-5-14-15-27-16-27-14-21-6-11-7-10-8-10-9-11-9-10-12-16-8-9-8-10-12-13-9-8-3-6z" fill="#0497D0"/>
<path transform="translate(725,231)" d="m0 0 9 1 2 3-6 5-8 7-10 9-7 6-7 8-10 9-14 16-5 4-9 11-11 12-12 17-8 10-7 9-6 8-9 11-9 14-5 9-8 13-5 8-9 17-3 2-7-1-13-6-10-5-11-4-44-22-10-6-8-7 1-7 9-11 12-12 10-8 7-8 10-9 19-14 17-12 19-12 13-8 8-5 28-14 23-11 22-11 27-8 22-5z" fill="#0497D1"/>
<path transform="translate(436,561)" d="m0 0 15 4 4 3 15 5-3 3 6 6h5v2h2l4 5v6l2 1-1 1-1 11h2l-1 35 1 4 3-9 3-5 1-7 2-4 1-13 3-8 4-8 3-3 3-7h1l-1 8-2 13-10 48-5 31-4 27-2 5-7-1-3-2-18-5-10-3-24-8-28-11-21-9-20-10-23-13-13-8v-7l9-29 4-12h2l2-9h2l2-5 5 2v2l11-2 6-4 5-4 2-4 9-3 4-3 8-1 4-1v3h2l1 2 4-2 5-1 4 1 8-4z" fill="#054F7D"/>
<path transform="translate(543,628)" d="m0 0 2 1-1 6v14l1 3v3l5 2 1 1h16l4 3 10 5 5 5 11 7 5 4 10 4 6 3 12 3 3 3 10 4 9 4 8 4 5 1h15l6-3 2-2 7-1 2-4 2-1h8l2-4 8-4h2l1-3 5-3 3-5 6-2h11l5-1 9 7 5 13 3 8 5 10v2h6v21l-1 12-2 4-4 2-1 2-1-2-2 3h4v5l-4 4h-14l-57-5-51-7-13-2-22-2-34-5-5-2-22-4-12-3-4-2-9-2-2-2 1-19 2-9 3-12 4-26 4-18h2l1-10 1-4h2z" fill="#034D7C"/>
<path transform="translate(194,605)" d="m0 0 6 3 18 13 8 7 11 8 16 11 13 11 7 4 1 10-4 15-6 30-4 21-5 31-3 26-2 24-2 9-2 18-3 9-4 1-5-5-4-5-5-4-8-11-12-20-10-17-7-14-7-19-6-23-1-4v-56l2-4 2-17 5-25 7-21z" fill="#08517F"/>
<path transform="translate(827,636)" d="m0 0 3 2 5 30 3 10 3 6 2 1v2l4 2 3 6 4 5 1 5h2l3 6v2l4 2 3 3 7 4 6 2 11 1 3 3 8 2 2-4 15-4 7-2 9-3 14-6 5-4 8-3 12-4 13-6 11-3 4-3 17-4 15-4v4h9l3 2 2 2 5 1 3-9 2-10 4-5 2 13 3 27v6h2l3 7 1 1v16l-3 2-12 2-9 2-13 1v1l-45 9-37 6-24 3-25 1-23 2-37 2h-20v-33l1-71h3l2 8v-8l-2-10v-7h-2v8h-1v-11z" fill="#024C7B"/>
<path transform="translate(1271,341)" d="m0 0h5l7 8 6 16 5 17 8 29 3 8 5 30 3 19v17l1 31-1 27-4 10-3 10-2 4-5-1-6-8-9-15-9-16-5-10-8-17-6-10-11-23-9-18-8-14-11-14-6-9-5-10v-5l6-7 9-6 11-7 7-6 4-6 8-9 8-4 7-7z" fill="#067BB6"/>
<path transform="translate(828,550)" d="m0 0 3 3 3 15 1 8 1 4 1 5 1 9 5 9 3 5 1 4h4l5 9v2l4 2 5 11h-2v-2h-2v-2h-2l-7-8v-2l-6-2-9-4v4l1 5h2l3 5 4 5 4 1 4 9 3 9h3l2 4 5 4 1 6 5 5 3 5 2 4 7 6 7 5 22-2 2-2 10-2h7l12-5 6-2 7-2 8-4 7-3 4-3 7-3 8-6 6-7-1-1-2 2-5 1-5 2 6-7 1-2-9 3v2l-15 5-10 4-12 3-5 3-8 2-3 1-3-1 1-3 7-2 1-2 9-1 11-3 5-3 8-4 4-4 11-3 2-4 4-1v3l9-3v-2l3-1h10l9 3 9 4 4 4 9 6 5 1v5h3l2-5 1-11 3-7 2 1 3 19 3 30 1 3 1 22h-1l-5-43-3 3-3 13-3 5-7-1-3-2v-1l-9-1-1-3-26 7-6 2-9 4-10 3-10 5-10 3-10 4-5 4-15 6-6 2-7 2-6 2-9 2-2 3h-8l-1-3-2-1-11-1-9-4-6-4-5-4-3-6v-2h-2l-4-8-4-5-2-4-2-1v-2l-3-1-4-8-3-14-4-24-1-1-1 5h-1v-31l1-42v-14z" fill="#037AB5"/>
<path transform="translate(1253,567)" d="m0 0h3l7 15 6 12 13 17 2 2 1 14-3 15-7 9-3 1-6-3h-12l-19 6-8 6-7 3-14 9-19 9-19 8-35 15-12 6h-5v-3l7-6-2-6-4-8-1-5h-2l-2-2v-7l3-6-1-4 3-1 6-15 7-6 4-2 11-11 2 2 5-1 8-3 16-3 3 1v2l12-5h2v-2l6-3 8-9 5-2h4 6l10-6 3-1h9l4-1 6 1 1-3v-12l-2-10z" fill="#034E7D"/>
<path transform="translate(257,458)" d="m0 0 2 1v7l-3 9-1 4 4 1v-2h2l1-3 8-4 10-3 1-1h7l5-1 1 3 2 1v1l10-2 1 5v2h4l1 6-1 15 3 1-1 28 1 4h3l1 7-5 10-3 7-2 1-2 9-13 37-3 10-2 6-5-1-9-7-11-9-6-7-3-5-7-7v-2h-2l-7-8-10-9-6-5 1-13-4-4 1-9 6-16 12-26 9-17 4-4 5-9z" fill="#024D7C"/>
<path transform="translate(1230,518)" d="m0 0 3 3 1 4h3l10 21 5 12 3 6v3h-2l3 17v12l-1 4-9-1-3 1h-8l-12 6-1 1h-6-3l-4 1-6 5-5 6-5 1v2l-12 5h-2l-1-2-13 2-9 2-5 3-5-1h-2l-10 10-8 5-3 4-4 10-4 4 1 5-3 5v5l1 4h2l5 12 3 5-2 4-6 5v1l7-1 19-9 28-12 26-11 17-9 10-7 2 1-7 6-6 4-17 9-16 6-22 10-8 3-4 3-10 3-15 7h-6l-6-29-6-39v-8l-5-24 1-4 2 1 2 6 7 1 2-4h2l3-12 3-6 8-6 3-3 3-1 1-2 10-3 7-9 5-8 2-3h2l-1-3 4-1v-2l4-1 1 4-4 4 3 2 9-4 2-4 12-2 4-2 9 1 9 7 11 4 5 4 10 3h3l1-2v-8l-4-11-5-18-3-8z" fill="#047BB5"/>
<path transform="translate(1244,707)" d="m0 0h5l-1 6-10 16-8 10-8 12h-2l-2 4-9 12-10 12-7 9-26 26-8 10-7 7-8 7-11 10-6 3-4 5-5-1-1-82-2-9 5-6 9-4 6-2 26-12 20-8 19-7 10-4 16-6 8-4z" fill="#0E5784"/>
<path transform="translate(1287,776)" d="m0 0 5 1 9 9 3 8 3 3-2 5-6 8-4 3h-3l-2 4-5 3h-2l-1 9-1 13-3 10-2 2h-3l-1 4-6 4v2l3 1 1-3h2l1 2v10l-1 3 12-3 3-1v-2h2l2-4 5-1v-2h2l-1 6-11 16-4 4h-4l-4 6-10 9-4 6-4 1-3-5 1-6-5 3-4 4h-2l-2 4-11 11-11 7-11 8h-2v3l-5 4-12 8-11 9-2 3h-2l-1 3-10 8-5 5-16 13-4 1h-6l-4 4-5 1 3-8h2l1-3 3-1 3-6 6-4 3-3 8-2 9-1 7-10 4-4 10-5 5-4 10-5 3-5 5-2 7-7h3l1-3 7-5 3-6-1-3-3 2-3-1 1 9-3 3-2-1 2-4-3-1-7 2-6-4v-3l-4-2-3-8-4-2-1-7 8-16h1v5l1-1 5-10 5-4h2l2-4 9-10 5-13 9-5 8-7 9-11 4-2 2-4h2l2-6 2-3h2l2-6 5-9 2-2 2-1 1-5z" fill="#037AB5"/>
<path transform="translate(443,427)" d="m0 0 6 2 20 12 9 3 5 4 10 4 4 3 11 4 2 2 15 5 4 3 18 5 3 4v6l-12 33-11 27-4 10-1-3v-4l-6 5-2 3-3-1 3-3-4-2-2-4v-8l-5-5v-3l6 1v-3h-2l-3-9-8-8-14-9-8-7-7-2-4-4-6-1-2-4-4-2-13-7h-14l-6 4-7 3h-4v-4l-3-1 7-11 4-7 4-4 10-13 2-1 2-5h2v-2l7 1 5 4v2l11 1h3v-2l-12-7-6-4z" fill="#0496D0"/>
<path transform="translate(788,127)" d="m0 0h43l36 2 36 4 41 6 33 7 19 5 13 4 34 13 23 10 25 10 10 6 11 6 11 7 8 6 13 7 23 16 10 7 9 7 8 7 9 7 10 9 16 12 10 9 7 6 1 5-7-6-11-9-15-12-33-27-14-10-15-10-23-15-18-11-16-9-27-13-30-12-37-13-30-9-27-6-27-4-58-6-29-2h-48l-38 4-42 6-25 5-30 8-36 12-42 15-27 10-30 15-23 13-15 9-19 12-21 14-13 10-11 9-14 12-15 15 2 5 12 18 8 10 9 10 10 10 8 7 1 2-4-2-10-9-18-18-9-11-6-9-6-12 2-4 7-8 14-14 14-11 9-7 8-7 5-4 8-4 27-18 11-7 18-10 10-6 23-11 14-6 9-4 10-3 11-4 13-4 15-5 11-5 20-7 16-4 13-4 21-5 21-4 13-1 14-3 28-3z" fill="#FEFEFE"/>
<path transform="translate(348,344)" d="m0 0 4 4 8 13 9 10 13 11 10 6 9 7 1 4-7 14-7 11-6 9-7 10-6 10-11 18-9 14-10 17-9 17-6 14-3 2 2-6 9-19 3-11-1-10 2-6 7-10h2l2-11h2l1-9 4-6h2l2-13 2-3v-11l-3-21-5-16-9-15v-2l-7-1-1-5 3-6 4-2 1 2h3l2 4v3l1 3h4v4l6 3 2 3 12 5-7-8-10-11-8-14z" fill="#0497D1"/>
<path transform="translate(1468,753)" d="m0 0h1l2 10v28l-3 35-5 37-6 32-2 4 1-10 1-9-3 5-3 9-7 8-4-2-6-7-10-7-7-11v-2l-6-1-1 6h-1l1-11h2l2-9 4-4 7-4 10 4 4 3 2 7h3l5 5 4-4 3-19 2-5 1-9v-15l1-3h2l-2-22-1-4h-8l-4 4-5-1-5-8-1-9 3-7 5-6 5 2 5 3 6 2 2-4 3-5z" fill="#037BB6"/>
<path transform="translate(1394,768)" d="m0 0 1 2-5 15-1 7-1 1-1 11v13h2l2 6 5-3 5 1 6 4 1 2v11l-2 21-2 3-1 9-2 4-3 12-5 15-5 13h-1v-6l5-13v-6h-2v-2h6l-1-4-12-3-2-4-3-1-1-6-8 1-3 5-7 1h-3l2-7 3-7h3l-1-5h-2l1-9 3-5 4-6 5-12v-3h2v-9l2-12 5-15 4-1 1-8 3-4 2-5z" fill="#037AB4"/>
<path transform="translate(1254,355)" d="m0 0h2v2l-3 1-3 5-1 3 3 2-1 7-2 4v17h-2l-1 6-1 23-2 4 1 7 3 7 4 13 4 8-1 5-2 2 3 9 13 25 8 18 11 20 9 15v3l-5-6-11-19-7-12-8-18-7-13-9-17-8-17-5-10-8-14-11-14-6-9-5-10v-5l6-7 9-6 11-7 7-6 4-6 8-9z" fill="#0597D1"/>
<path transform="translate(783,185)" d="m0 0h59l38 4 33 6 27 7 37 12 30 13 28 14 21 13 13 10 14 10 13 10 14 11 11 9 14 14 8 7 7 7 7 8 12 14 6 6 4-1 19-19 8-7 12-11 14-10 8-4 6-1-3 4-9 3-12 9h-2l-2 4-8 7-5 6-10 8-9 10-5 5h-6l-14-12-10-13-7-8v-2l-4-2-9-8-11-9-10-10-16-12-11-9-18-12-12-10-18-11-6-4-10-4-17-9-8-3-12-6-10-3-11-4-20-6-19-5-17-4-32-6-7-1-24-1h-62l-27 2-15 2-25 5-42 11-24 5-19 7-17 8-19 10-16 8-14 9-20 13-13 10-13 11-6 4-8 7-13 10-8 7-6 7-8 7-12 12-7 8-7 7-5 2 6-8 16-17 20-20 8-7 12-10 11-8 17-14 20-15 23-15 23-13 25-12 23-9 23-6 40-10 23-5 27-4z" fill="#FEFEFE"/>
<path transform="translate(1405,482)" d="m0 0 2 1 3 12 6 47 2 23v62l-3 31-8 49-6 24-9 28-12 35-6 19-7 17-12 24-9 19-11 19-8 14-10 18-6 9-1-2 9-17 3-7 6-9 9-16 9-15 5-13 12-22 5-10 5-16 7-25 5-12 4-10 4-13 6-18 6-24 2-15 1-15 3-15 2-15 1-24v-64l-2-17-4-22-3-4-3 46-1 27-3 29-6 35-6 24-4 15-10 39-9 22-13 29-9 20-5 8-3 6-12 21-10 17-11 18-5 8-2 1-3 7-5 6-3 5-4 2 2-4 7-11 10-15 12-20 11-18 13-23 16-32 9-20 9-23 6-19 14-57 7-37 3-26 2-30 2-59 3-21z" fill="#FEFEFE"/>
<path transform="translate(1307,457)" d="m0 0h1l2 16 1 15v30l-2 22-4 17-3 8-5-2-3-7-6-10-8-14-1-8-2-4 1-2-1-4h2v-9l1-7 3-4h2v-2l7-3 7-2 2-4 2-1 2-15z" fill="#024D7D"/>
<path transform="translate(892,229)" d="m0 0 11 1 15 4 33 12 10 4 8 3 21 10 18 10 40 24 12 9 13 10 10 9 8 6 13 13 11 9 12 9 18 18 1 5-5 6-11 8-14 9-25 11-14 8-23 10-8 3-2 2h-8l-5-6-5-14-15-27-16-27-14-21-6-11-7-10-8-10-9-11-9-10-12-16-8-9-8-10-12-13-9-8-1-4 7 6 19 19 9 11 8 9 8 10 11 13 9 11 11 14 14 22 16 25 15 27 15 29 3 10 44-21 16-8 18-8 16-10 12-9-2-5-20-18-14-11-13-13-8-7-11-9-15-12-16-11-19-12-25-14-23-12-34-14-34-12-17-5z" fill="#FEFEFE"/>
<path transform="translate(845,522)" d="m0 0h22v1l-36 3h-7l1 19 1 66 1 34h2l2 12 1 5v10l-2-2-2-8h-1l-1 71-1 33 57-3 23-2 25-1 36-5 36-6 33-7v-1h9l-4 2-15 4-26 6-35 5-18 3-26 2-36 4-35 2h-20l-7-2-1-1v-13l1-24v-22l-1-55v-52l1-14v-24l-2-21v-11l3-5 3-2z" fill="#0692CC"/>
<path transform="translate(1114,163)" d="m0 0 5 2 22 14 27 15 22 12 15 9 16 12 18 14 11 9 19 19 9 11 13 16 11 17 13 24 10 19 6 14 9 28 7 30 5 27 2 22 1 19v28l-2 24-3 24h-1v-14l1-19 1-8v-30l-3-46-5-25-6-27-6-22-7-19-8-17-5-8-12-21-6-10-11-15-9-10-8-10-11-13-3-3-14-11-15-13-10-7-11-8-22-12-7-4-2-2-9-3-3-3-12-6-15-10-11-7-6-5z" fill="#FEFEFE"/>
<path transform="translate(826,241)" d="m0 0h1v128l-2 113h13l23-2 54-7 37-6 28-6 12-4 3 1-12 6-32 7-18 2-12 2-5 1-8 2-43 4-34 4-7-1-3-3v-51l2-13v-62l1-107 1-7z" fill="#FEFEFE"/>
<path transform="translate(725,231)" d="m0 0h6l-2 2-23 7-15 3-29 9-29 14-41 20-23 14-27 18-17 12-14 11-11 11-8 7-9 9-6 5-7 8-3 4 2 4 7 6 16 9 4 3-6-1-17-10-8-7 1-7 9-11 12-12 10-8 7-8 10-9 19-14 17-12 19-12 13-8 8-5 28-14 23-11 22-11 27-8 22-5z" fill="#FEFEFE"/>
<path transform="translate(789,244)" d="m0 0 2 3v87l-2 49-3 31v21l-1 12-1 35-2 4-26-4-9-1h-13l-13-2-18-2-12-3-29-4-14-4-19-4-19-6-1-4 24 8 21 5 44 8 39 5 34 3 10 1 3-70 2-46z" fill="#FEFEFE"/>
<path transform="translate(1167,421)" d="m0 0h7l-4 2-9 6-28 16-26 14-19 10-25 10-8 3 10 23 11 30 6 19 11 44 7 31 6 35 5 31 3 14-1 4-2-2-6-32-2-14-3-22-5-21-7-31-5-21-5-18-10-30-6-16-5-10-4-11v-5l16-8 16-5 5-3 7-3 18-10 23-12 13-8 11-6z" fill="#FEFEFE"/>
<path transform="translate(909,741)" d="m0 0 7 1 9 1h9l5 1-1 3-7 3-4 3 1 2-1 3 22-2 47-7 28-6h7v1l-40 8-37 6-24 3h-13l-1-3-12-2-17-1-7-1-3-5 4-3 9-1v-3l15 1z" fill="#037EB9"/>
<path transform="translate(1285,405)" d="m0 0h5l3 4v3l4 2 3 6 2 3-1-12 3 4 3 15v7l-3-4-1 2-1 16v11l-2-1-1-9-3 5-4-2-3-3-2-3-1-9-2-6-1-6-1-17 2-5z" fill="#0E9BD2"/>
<path transform="translate(734,234)" d="m0 0 2 1-6 5-8 7-10 9-7 6-7 8-10 9-14 16-5 4-9 11-11 12-12 17-8 10-7 9-6 8-9 11-9 14-5 9-8 13-5 8-9 17h-3l12-23 10-17 8-14 11-15 13-17 8-11 12-16 9-11 18-20 12-12 7-8 18-18 8-7 10-9z" fill="#FEFEFE"/>
<path transform="translate(1119,163)" d="m0 0 10 1 21 7 16 8 11 6 10 7-1 2-5-1 2 4 3 2v2h2v2l-7-1-19-10-16-9-11-7-4-4-11-7z" fill="#025181"/>
<path transform="translate(1313,692)" d="m0 0 2 1v7l-2 7-4 10-4 4-1 2h-2l-2 6-4 1-2 7-5 12-2 8-5 1-2 10-7 9h-2l-2 6-5 6-8 6-4-1 11-15 5-10 11-17 13-22 9-16 10-21z" fill="#037EB8"/>
<path transform="translate(781,244)" d="m0 0 3 1-18 11-16 13-8 7-13 12-7 7-8 7-9 10-12 13-8 9-10 13-11 13-9 12-13 18-12 21-13 23-7 14h-1v-6l11-19 12-22 8-14 8-10 4-6 3-5 9-11h2l2-4 9-11 7-10 9-10 11-12 7-8 24-24 14-11 10-8 14-10z" fill="#FEFEFE"/>
<path transform="translate(1290,732)" d="m0 0v3l-8 14-9 14-8 12-10 14-13 17-9 13-13 16-37 37-8 7-11 10-10 8-18 14-16 12-13 10-24 16-22 13h-3l4-4 6-3 19-12 16-10 18-14 10-9 11-7 10-9 10-8 9-8 8-7 10-9 10-10 5-4 7-8 8-9 7-8 6-7 3-6 8-10 7-10 5-5 7-10 14-21 3-6 6-9z" fill="#FEFEFE"/>
<path transform="translate(845,522)" d="m0 0h22v1l-36 3h-7l1 19v72l-1 139-1 11-2-1v-13l1-24v-22l-1-55v-52l1-14v-24l-2-21v-11l3-5 3-2z" fill="#FEFEFE"/>
<path transform="translate(1117,158)" d="m0 0h8l15 5 26 11 24 13 7 4 12 8 10 7 11 8 15 13 13 11 8 7 13 13 9 10 5 5 16 17 8 9 6 8-1 2-14-15-7-8-9-11-8-7-26-26-11-9-10-9-18-13-17-12-23-14-14-8-17-8-21-7-10-3z" fill="#FEFEFE"/>
<path transform="translate(343,339)" d="m0 0 2 1-11 10-8 7-9 9-9 11-9 13-14 20-9 14-17 28-16 29-14 29-8 21-1 9v2l4 2-1 13 11 10 8 7 3 3v2h2l7 8 3 3-1 2-28-28-13-10 2-19 7-20 8-17 11-23 9-17 7-11 4-8 8-13 7-12 8-10 8-13 9-11 8-11 21-21z" fill="#FEFEFE"/>
<path transform="translate(1350,350)" d="m0 0 4 5 6 9 10 17 15 25 10 21 4 11 28 56 8 20 7 28 6 25 5 16 4 17 3 15 1 14h-1l-8-37-14-54-6-23-7-19-11-23-10-18-13-27-9-20-6-11-16-26-8-15v-2h-2z" fill="#FCFDFD"/>
<path transform="translate(829,239)" d="m0 0 6 1 12 8 14 10 10 9 14 14 9 11 17 17 13 17 14 19 8 11 10 15 9 15 7 14-1 3-11-20-14-22-33-44-9-10-15-16-7-8-14-15-12-11-18-11-8-4-3-2z" fill="#FEFEFE"/>
<path transform="translate(1273,341)" d="m0 0 4 1 7 9 3 13 3 9 1 11-4-1-7-9-6-7-4-9-1-4-6-1 6-7z" fill="#0E5987"/>
<path transform="translate(783,525)" d="m0 0h1v114l-1 56v49l1 25-1 1h-5l4-1-2-40v-53l2-91v-59z" fill="#FEFEFE"/>
<path transform="translate(1224,912)" d="m0 0 2 1 1 4-5 7-5 4-8 6-3 1-1 3-5 2-4 6-12 6-5 4-9 3-2 4-7 10-4-2-3-3 2-6 5-5 8-5 9-1 5-3h2v-2l11-6 8-8 6-4 8-4 1-3v-7h4z" fill="#0497D1"/>
<path transform="translate(1468,698)" d="m0 0h1l3 31 1 28v26l-2 33-6 52-8 36-3 8-1-4 8-38 5-35 3-29 1-15v-28l-2-54z" fill="#FEFEFE"/>
<path transform="translate(427,427)" d="m0 0h2l-2 4-6 7-14 22-13 20-8 13-4 10-5 8-12 20-4 8-2 1-8 17-8 16-4 9-1-3 5-12 10-19 9-19 3-7 9-16 8-12 8-13 10-16 5-7 4-7 8-11 6-9z" fill="#FEFEFE"/>
<path transform="translate(612,750)" d="m0 0 20 1 48 7 37 4 48 4 2 2h-28l-28-3-3-1-36-3-18-3-10-2-27-3-5-2z" fill="#7AC2E0"/>
<path transform="translate(1207,396)" d="m0 0h1l3 9 7 12 12 16 8 13 10 21 20 38 8 18 11 20 9 15v3l-5-6-11-19-7-12-8-18-7-13-9-17-8-17-5-10-8-14-11-14-6-9-5-10v-5z" fill="#FEFEFE"/>
<path transform="translate(919,1023)" d="m0 0h6l-3 2-38 12-44 11-38 8-35 6-23 3-10 2h-23v-1l17-1 36-6 24-3 16-4 9-1 27-6 21-5 6-2 16-3 29-10z" fill="#FEFEFE"/>
<path transform="translate(1152,973)" d="m0 0h7l-2 6-5 7-10 8-4 1h-6l-4 4-5 1 3-8h2l1-3 3-1 3-6 6-4 3-3z" fill="#0395CF"/>
<path transform="translate(1011,494)" d="m0 0 5 2-4 2-22 6-34 7-28 5-37 5-11 1h-11v-1l26-3 17-3 18-2 13-4 24-4 14-4 17-2 12-4z" fill="#FEFEFE"/>
<path transform="translate(1309,449)" d="m0 0h1l3 19v17l1 31-1 27-4 10-3 10-2 4-5-1v-2h3l5-18 2-13 1-15v-30l-1-15z" fill="#0388C3"/>
<path transform="translate(737,657)" d="m0 0 7 1-3 2-4 1-5 2-2 4-7 4h-5l-2 5-4 1v4l-3 4-8 2v2l-13 2h-5l3-2 4-1v-2h5l2-4 2-3 7-3 5-3h3v-2h2v-2l8-7 3-1v-2l3-1z" fill="#024C7B"/>
<path transform="translate(1348,572)" d="m0 0h1l-1 10-6 28-12 39-10 27-16 34-9 17-4 5 1-6 6-9 7-14 3-9 11-22 4-12 4-11 3-10 3-7 3-14 2-2 3-11 2-17z" fill="#FEFEFE"/>
<path transform="translate(400,400)" d="m0 0 1 2-11 19-7 11-8 11-6 10-11 18-9 14-10 17-9 17-6 14-3 2 2-6 14-29 14-24 12-19 8-13 8-12 17-26z" fill="#FEFEFE"/>
<path transform="translate(1417,478)" d="m0 0 3 1 11 24 5 14 12 50 5 16 4 17 3 15 1 14h-1l-8-37-14-54-6-23-7-19-8-17z" fill="#FEFEFE"/>
<path transform="translate(320,535)" d="m0 0 1 3-9 19-4 9-3 11-2 9-3 1-3 14-4 5-3 8-1-3 4-13 12-34 3-11 2-2 7-14h3z" fill="#5EB5DA"/>
<path transform="translate(1183,192)" d="m0 0h4l11 6 4 5-1 2 4 6v2l5 2-1 2-5-3-7-3-12-7 3-1v-2h-2l-5-5v-3z" fill="#037AB4"/>
<path transform="translate(1223,661)" d="m0 0 2 1-7 6-6 4-17 9-16 6-22 10-8 3-4 3-10 3-15 7-3-1 16-8 25-11 31-13 21-10z" fill="#FEFEFE"/>
<path transform="translate(1050,965)" d="m0 0 4 1-17 9-22 12-17 8-25 11-23 10-21 7-4-1 11-4 9-3 25-10 8-4 16-7 18-8 10-6 16-8z" fill="#FEFEFE"/>
<path transform="translate(1035,741)" d="m0 0h9l-4 2-15 4-26 6-35 5-18 3-25 2-1-2 40-5 37-6 38-8z" fill="#F6FAFC"/>
<path transform="translate(443,427)" d="m0 0 6 2 20 12 9 3 5 4 10 4 4 3 11 4 2 2 15 5 4 3 18 5 1 2-8-1-19-7-23-10-36-18-19-12z" fill="#FEFEFE"/>
<path transform="translate(1215,841)" d="m0 0h2l1 9-2 6-9 6-3-1-5 2-2-1 2-4 7-8z" fill="#037AB5"/>
<path transform="translate(1344,602)" d="m0 0h1v7l-4 18-1 5-6 15-3 9-4 9-1-4 3-12 10-32 3-11z" fill="#037FB9"/>
<path transform="translate(581,1067)" d="m0 0h31l17 1h24l23-1h29v1l-30 2h-65l-29-2z" fill="#FEFEFE"/>
<path transform="translate(477,793)" d="m0 0h1v44l-1 27v23l1 28-2-2-1-8v-77l1-10z" fill="#A6D9ED"/>
<path transform="translate(1290,732)" d="m0 0v3l-8 14-9 14-8 12-10 14-13 17-7 10h-2l1-5 9-11 7-10 5-5 7-10 14-21 3-6 6-9z" fill="#FEFEFE"/>
<path transform="translate(218,537)" d="m0 0 2 3v2l4 2-1 13 11 10 8 7 3 3v2h2l7 8 3 3-1 2-28-28-13-10 1-11z" fill="#0A82BB"/>
<path transform="translate(695,761)" d="m0 0h11l59 5 2 2h-28l-28-3-3-1-13-1z" fill="#81C5E2"/>
<path transform="translate(518,776)" d="m0 0h2l-3 38v71l1 25h-1l-2-22v-82l1-22z" fill="#FEFEFE"/>
<path transform="translate(384,495)" d="m0 0 1 2-7 13-6 9-7 12-4 8-2 1-8 17-8 16-4 9-1-3 5-12 10-19 8-16h2l2-6 8-14 10-16z" fill="#8CCFE9"/>
<path transform="translate(1412,851)" d="m0 0 1 3-6 37-1 4h-2l2-17-3-1-3 10-3 6-1-3 11-28 4-10z" fill="#F1F8FB"/>
<path transform="translate(910,762)" d="m0 0h10v1l-36 4-35 2h-20l2-2 57-3z" fill="#FEFEFE"/>
<path transform="translate(835,687)" d="m0 0 3 2v4h2l1-2v2h2l3 9 3 12-2 2-6-5-2-5-1-1-3-15z" fill="#037AB5"/>
<path transform="translate(988,700)" d="m0 0h5l-3 3-12 5-13 4-12 7-4 3-2-1 3-5 5-5h8v-2l6-2 6-3 8-2z" fill="#037AB5"/>
<path transform="translate(1e3 791)" d="m0 0h10v1l-63 10h-7v2l-5 1h-18v-1l18-2 11-3 32-4 13-3z" fill="#FEFEFE"/>
<path transform="translate(549,479)" d="m0 0h1l-1 7-8 23-16 40-1-3 10-29 8-20z" fill="#FEFEFE"/>
<path transform="translate(779,676)" d="m0 0h1l1 53 1 26v14l-2-1-1-7v-23l-1-49z" fill="#0497D1"/>
<path transform="translate(1312,485)" d="m0 0h1l1 31-1 27-4 10-3 10-2 2 2-11 3-12 2-18z" fill="#FEFEFE"/>
<path transform="translate(514,574)" d="m0 0 1 4-5 18-5 25-7 32-2 3 1-9 10-47 2-12 2-7z" fill="#FEFEFE"/>
<path transform="translate(348,344)" d="m0 0 4 4 8 13 9 10 13 11 10 6 7 5-3 1-18-12-13-12-9-10-8-14z" fill="#FEFEFE"/>
<path transform="translate(1192,448)" d="m0 0 5 5 20 35 14 24 1 5-4-5-14-25-13-22-9-15z" fill="#FEFEFE"/>
<path transform="translate(973,405)" d="m0 0 3 3 10 18 9 14 5 11-1 5-2-1-2-6-18-35-4-7z" fill="#FEFEFE"/>
<path transform="translate(250,800)" d="m0 0h1l-1 19-2 9-2 18-3 9-4 1 2-1 1-9 5-28 2-15z" fill="#76C1E1"/>
<path transform="translate(509,342)" d="m0 0h4l-2 4-8 8h-2v2h-3l-1 3-10 8-1-3 12-12 8-7z" fill="#0380BB"/>
<path transform="translate(1324,310)" d="m0 0 5 4 9 11 5 7 6 11 1 7-4-5-9-15-12-17z" fill="#FEFEFE"/>
<path transform="translate(176,674)" d="m0 0h1v12l-1 11v30l2 14v5l-2-4-2-8v-56z" fill="#FEFEFE"/>
<path transform="translate(1068,711)" d="m0 0 2 4 3 4v16l-3 2-12 2h-5v-2l14-3h3l-2-15z" fill="#36A5D3"/>
<path transform="translate(336,347)" d="m0 0 3 1-6 7-12 12h-2l-1 3h-2l-2 4-2-1 4-7 16-16z" fill="#025F91"/>
<path transform="translate(764,1059)" d="m0 0h9v2l-29 4-10 2h-23v-1l17-1 18-3z" fill="#D3EBF5"/>
<path transform="translate(1026,980)" d="m0 0h5l-2 4-5 5-6 1-10 4-3-1v-2z" fill="#025B8D"/>
<path transform="translate(1105,931)" d="m0 0m-1 1v3l-21 14-22 13h-3l4-4 6-3 19-12 16-10z" fill="#FEFEFE"/>
<path transform="translate(585,496)" d="m0 0 1 2-8 19-12 36-1-4 5-17 5-16 4-8 4-9z" fill="#FEFEFE"/>
<path transform="translate(1114,159)" d="m0 0 9 1 16 5 1 2-8-1-7-2h-5l15 10-2 1-14-9-6-3z" fill="#0693CD"/>
<path transform="translate(1189,867)" d="m0 0 2 3 1 4-6 2-9 6h-2l-2 4-3-1 3-3 3-5 7-6 5-3z" fill="#037FB9"/>
<path transform="translate(636,506)" d="m0 0 17 1 15 2 4 2 19 3v1l-16-1-39-7z" fill="#FEFEFE"/>
<path transform="translate(1314,332)" d="m0 0 3 3 6 11 8 16 2 6-1 4-1-5h-2l-12-25z" fill="#0382BC"/>
<path transform="translate(1388,773)" d="m0 0 1 3-1 10-2 2-3 1-7 23-3 7-1-3 13-39z" fill="#0392CC"/>
<path transform="translate(215,552)" d="m0 0 8 5 11 10 8 7 3 3v2h2l7 8 3 3-1 2-28-28-13-10z" fill="#FEFEFE"/>
<path transform="translate(493,666)" d="m0 0h1l-1 10-4 28-2 9h-1l1-18 4-26z" fill="#78C1E0"/>
<path transform="translate(693,514)" d="m0 0 18 1 20 4 17 2v1h-9l-47-6z" fill="#FEFEFE"/>
<path transform="translate(518,414)" d="m0 0 8 3 7 3 6 3v2h5l1 3h-7v-2l-6-2-15-7z" fill="#0886C0"/>
<path transform="translate(588,493)" d="m0 0h7l18 6 18 3 5 3-4 1-28-7-11-4-5-1z" fill="#FEFEFE"/>
<path transform="translate(528,690)" d="m0 0h1v10l-3 12-1 6v12l8 2v1l-9-1-2-2 1-19 2-9z" fill="#B0DBED"/>
<path transform="translate(1344,602)" d="m0 0h1v7l-4 18-6 5 3-12 4-14z" fill="#037FBA"/>
<path transform="translate(1311,514)" d="m0 0h1v10l-2 18-6 25-5-1v-2h3l5-18 2-13 1-15z" fill="#1093CA"/>
<path transform="translate(305,568)" d="m0 0h1l-1 9-2 9-3 1-3 14-4 3 3-10z" fill="#FEFEFE"/>
<path transform="translate(517,1058)" d="m0 0 14 1 16 3 17 3v1h-13v-2l-13-1-11-2-10-1z" fill="#CFE9F4"/>
<path transform="translate(496,407)" d="m0 0 6 2 23 11 13 6-4 1-36-17z" fill="#FEFEFE"/>
<path transform="translate(1217,974)" d="m0 0v3l-8 8-7 9-7 7-2-1 6-7 3-5z" fill="#FEFEFE"/>
<path transform="translate(827,645)" d="m0 0h2l2 12 1 5v10l-2-2-2-8h-2v-9z" fill="#037AB5"/>
<path transform="translate(950,799)" d="m0 0h8v2l-14 1v2l-5 1h-18v-1l18-2z" fill="#C5E5F2"/>
<path transform="translate(1224,912)" d="m0 0 2 1 1 4-5 7-5 4v-3l2-4v-7h4z" fill="#0396D0"/>
<path transform="translate(1366,830)" d="m0 0 1 3-9 19-8 16-3 3 2-6z" fill="#0391CB"/>
<path transform="translate(780,739)" d="m0 0h1l1 16v14l-2-1-1-7v-21z" fill="#0396D0"/>
<path transform="translate(382,721)" d="m0 0 5 1 20 9 9 4 5 3-2 1-37-17z" fill="#FEFEFE"/>
<path transform="translate(1461,629)" d="m0 0 2 4 2 6 2 29-2-2-4-32z" fill="#FEFEFE"/>
<path transform="translate(1e3 628)" d="m0 0 6 2-3 3-8 2-4 3-4-2 5-2v-2h3v-2z" fill="#037AB5"/>
<path transform="translate(1229,379)" d="m0 0 2 1-7 6-12 8-4 2 2-4 9-7z" fill="#FEFEFE"/>
<path transform="translate(1280,972)" d="m0 0h2l-2 5-9 10-8 10-2 4-2-1 6-10 8-8z" fill="#F5FAFC"/>
<path transform="translate(944,758)" d="m0 0h9v2l-30 3-3-1v-1z" fill="#FEFEFE"/>
<path transform="translate(655,511)" d="m0 0h8l12 2 2 2-9 1-13-3z" fill="#0383BE"/>
<path transform="translate(621,504)" d="m0 0 15 2 10 2v2h-10v-2h-8l-7-3z" fill="#026194"/>
<path transform="translate(1070,717)" d="m0 0 3 2v16l-3 2h-8v-1l9-2-1-8z" fill="#FEFEFE"/>
<path transform="translate(1281,611)" d="m0 0 3 2 1 14-3 15-2 1 2-15v-13z" fill="#6BBDDF"/>
<path transform="translate(1264,915)" d="m0 0 1 2-6 9-7 10-6 5 2-4 14-19z" fill="#FEFEFE"/>
<path transform="translate(612,750)" d="m0 0 13 1 19 3v1h-10l-17-2-5-2z" fill="#FEFEFE"/>
<path transform="translate(1253,646)" d="m0 0h13l10 3-3 3-7-3h-16l3-1z" fill="#77C0E0"/>
<path transform="translate(777,693)" d="m0 0h1v18l-2-3-2-6v-3l-2-1v-2z" fill="#024C7B"/>
<path transform="translate(1309,449)" d="m0 0h1l3 19-1 15h-1l-2-26z" fill="#FEFEFE"/>
<path transform="translate(1452,912)" d="m0 0h1v7l-4 18-3 3 2-11z" fill="#FEFEFE"/>
<path transform="translate(1245,649)" d="m0 0h5l-2 2-13 4-8 6-2-1 5-5 10-4z" fill="#ACDAED"/>
<path transform="translate(1337,628)" d="m0 0 3 3-3 8-4 4v-7z" fill="#026FA6"/>
<path transform="translate(1395,890)" d="m0 0 1 4-8 21h-1v-6l6-15z" fill="#68BCDF"/>
<path transform="translate(1012,497)" d="m0 0h4l1 5h-14l3-1v-2z" fill="#0379B2"/>
<path transform="translate(1323,352)" d="m0 0 5 4 5 12-1 4-1-5h-2l-6-13z" fill="#0385C0"/>
<path transform="translate(1244,1018)" d="m0 0v3l-8 8-6 8h-3l5-6 6-8z" fill="#E0F1F8"/>
<path transform="translate(514,574)" d="m0 0 1 4-5 18h-2l1-8 2-7z" fill="#98D0E8"/>
<path transform="translate(1077,949)" d="m0 0m-1 1m-2 1h2l-1 3-14 8h-3l4-4 6-3z" fill="#F7FBFC"/>
<path transform="translate(1044,784)" d="m0 0h5l-4 2-14 3-1 1h-8v-1l14-4z" fill="#E5F3F8"/>
<path transform="translate(1254,478)" d="m0 0 3 3 1 4h2l4 9 3 6-1 3-12-23z" fill="#0497D1"/>
<path transform="translate(1271,341)" d="m0 0 2 1-9 10-1 2h-2l-1-3z" fill="#73B0CD"/>
<path transform="translate(588,493)" d="m0 0h7l14 5 2 2-10-2-13-4z" fill="#F7FBFC"/>
<path transform="translate(1217,974)" d="m0 0v3l-8 8-8 7v-3l7-7 8-7z" fill="#84C5E2"/>
<path transform="translate(1380,928)" d="m0 0h2l-1 5-5 13h-1v-6z" fill="#7DC5E3"/>
<path transform="translate(1254,355)" d="m0 0h2v2l-5 3-7 8h-2l-1 3-1-2 9-11z" fill="#F0F8FB"/>
<path transform="translate(517,1058)" d="m0 0 14 1 7 2v1l-17-1-4-1z" fill="#CBE6F2"/>
<path transform="translate(827,526)" d="m0 0h11l-3 2-9 4v-5z" fill="#0278B2"/>
<path transform="translate(1178,1014)" d="m0 0 2 1-7 8-7 5-2-1 13-12z" fill="#FEFEFE"/>
<path transform="translate(728,613)" d="m0 0 6 1 1 3-5 2-3-2z" fill="#037AB5"/>
<path transform="translate(257,454)" d="m0 0 1 4-5 7-4 7-1-2z" fill="#038AC4"/>
<path transform="translate(1388,773)" d="m0 0 1 3-3 9-2 1v-7z" fill="#0389C3"/>
<path transform="translate(433,426)" d="m0 0 2 1-6 7h-2l-2 4-3 1 2-4z" fill="#024C7B"/>
<path transform="translate(485,971)" d="m0 0h1l1 19-2 1-6-2 4-1 2 1z" fill="#ECF6FA"/>
<path transform="translate(1111,695)" d="m0 0 2 3 3 12 3 2-5 1-3-14z" fill="#0393CD"/>
<path transform="translate(1288,275)" d="m0 0 5 3 3 3v3l-4-2-4-4z" fill="#037AB5"/>
<path transform="translate(871,1396)" d="m0 0 2 1-2 3h16v1h-19l2-4z" fill="#FEFEFE"/>
<path transform="translate(1054,965)" d="m0 0 3 1-5 4-7 2 1-3z" fill="#025F92"/>
<path transform="translate(276,609)" d="m0 0 4 2 7 3h2l-1 3-5-1-7-6z" fill="#C8E6F3"/>
<path transform="translate(1384,781)" d="m0 0m-1 1 2 3 1-3h2l-1 6-4 1-2 2z" fill="#0497D1"/>
<path transform="translate(525,538)" d="m0 0h1l-1 8-2 8-1-3 1-11z" fill="#3B9ECC"/>
<path transform="translate(1190 1e3)" d="m0 0v3l-9 8-2-2 4-4 5-3z" fill="#9DD0E7"/>
<path transform="translate(1427,995)" d="m0 0h2l-2 9-3 7-1-3 2-5z" fill="#C4E5F2"/>
<path transform="translate(1396,887)" d="m0 0 1 3h-2l-1 4h-2v-4h-2v-2z" fill="#037DB8"/>
<path transform="translate(1069,777)" d="m0 0 3 1-2 2-9 3h-5l3-2z" fill="#E1F1F7"/>
<path transform="translate(367,524)" d="m0 0v3l-6 12-1-3 1-4h2l2-6z" fill="#179ED4"/>
<path transform="translate(894,235)" d="m0 0h4l4 7-4-1-4-4z" fill="#037DB7"/>
</svg>
