<?xml version="1.0" encoding="UTF-8"?>
<svg version="1.1" viewBox="0 0 2048 2048" width="1280" height="1280" xmlns="http://www.w3.org/2000/svg">
<path transform="translate(1142,786)" d="m0 0h6l19 19 7 10 15 15 10 14 12 12 8 11 16 16 8 11 12 13 7 7 8 11 1 3 3 1 2 4 2-144 3-1h50l1 1v244h-40l-16-16-9-11-11-14-13-16-12-13-8-11-17-17-8-11-11-12-8-11-10-10-2-1v143h-50l-2-161-2-26v-53l1-5 3-1h22z" fill="#0F0E0E"/>
<path transform="translate(899,788)" d="m0 0 43 1 10 19 12 24 13 30 14 29 36 82 17 37 8 15 1 8h-61l-5-6-10-23-4-16-68-1h-33l-4 5-6 15-8 19-5 6h-31l-4 1h-22l-1-4 4-7 4-8 9-21 11-25 10-21 9-21 13-29 11-26 13-30 14-29 9-23zm21 77-8 16-15 34-6 15 1 6 2 1 58 1-2-9-7-15-7-19-12-29z" fill="#0F0E0E"/>
<path transform="translate(133,786)" d="m0 0h39l8 15 13 30 13 29 10 19 12 27 12 25 20 47 9 25 10 24 1 5-1 1h-56l-7-14-10-23-5-9v-2l-20 2h-22l-21-2h-33l-15 31-5 10-4 6-54-1-1-3 10-23 13-30 11-26 12-29 12-27 16-34 13-29 15-37zm18 75-4 8-6 21-6 15-14 27 1 4 2 1 54 1 4 1 1-1-1-12-7-15-11-27-11-23z" fill="#0F0E0E"/>
<path transform="translate(1912,782)" d="m0 0h21l13 3 9 1 3 2 12 3 16 9 17 12 9 7 14 14 1 5-13 5-10 7-6 9-7 11-1 2-5-1-11-9-1-4-6-2-10-7-15-7h-43l-13 4-12 9-14 14-6 13-5 20v16l5 18 8 15 9 10 8 6 13 7 9 2v2l42-1 3-2 9-2 16-9 7-7 2-7 4 1 12 13 7 6 18 10 8 6 1 3-10 7-15 9-10 7-17 10-16 7-16 4-21 1h-16l-21-1-3-2-15-4-12-6-12-8-5-4-6-4-9-9-8-7-9-11-8-15-7-19-3-15-1-2v-36l2-4 2-15 9-20 8-13 9-10 18-18 19-11 12-6 13-5 7-1 2-2 16-2z" fill="#0F0E0E"/>
<path transform="translate(306,786)" d="m0 0h91l6 1 30 1 85 1 1 1v53l-10-1-68-1v101l-1 91h-56l-1-1v-59l1-16v-111l-1-4h-69l-1 1h-5l-2-50-1-6z" fill="#111010"/>
<path transform="translate(1397,786)" d="m0 0h68l8 1h59l5-1h38l19 1 8 1 2 2v49l-1 1h-74l2 149 1 12v27l-4 5h-6l-1-1h-22l-6 1-17 1-1-1-1-77-1-104-1-10-76-1v-54z" fill="#100F0F"/>
<path transform="translate(585,786)" d="m0 0h48l1 1 1 27 1 47 1 16v85l-1 7v8l29 1 90 1 1 2v16l-2 21-2 14h-66l-7 1h-95l-1-1v-243z" fill="#100F0F"/>
<path transform="translate(677,1104)" d="m0 0 4 1 19 1 52 1 10 3 11 6 15 15 7 14v31l-3 1-1 9-12 12-6 3h-2l3 8 10 16 11 15 3 4 1 10-4 1h-39l-8-15-8-13-10-16v-2h-17v45l-1 1h-39v-32l1-7-1-28v-80zm32 36v35l2 1h38l8-6 2-3v-10l-6-11-8-5-8-1z" fill="#FEB730"/>
<path transform="translate(1666,786)" d="m0 0h8l2 1h11l10-1h21l2 2 2 74v76l-1 16v50l1 10v15l-9 1-35 1-5 2h-8v-246z" fill="#0E0D0D"/>
<path transform="translate(914,1107)" d="m0 0h19l8 16 10 23 12 25 15 36 9 21 8 18 1 8-2 1h-16l-2-1h-8l-2 1h-9l-5-5-4-12-6-12v-2h-7l-3 2-43 1-3 10-2 17-1 1h-41l-1-1 1-8 8-22 11-25 8-19 10-26 9-20 9-19 3-7zm0 54-4 4-8 23v8l4-1 28-1-3-9-9-16-5-8z" fill="#FEB730"/>
<path transform="translate(1212,1104)" d="m0 0 6 1 24 1 77 1 1 4-2 27-2 3-5-3-65-1v27l36 1 22 2v-2h3v26l-2 6h-10l-5-1-41-1 1 6v20l67 1 1 1v31l-4 1h-100l-1-10-1-40-1-87-1-12z" fill="#FEB730"/>
<path transform="translate(1125,1104)" d="m0 0 14 2 20 1 1 1-1 8-7 21-8 20-9 25-10 23-15 40-6 12-4 1v-2l-28-1-9-17-13-33-7-16-12-30-10-26-4-13v-14l34 1 4 10 8 21 12 26 12 30v3h4l3-11 8-20 12-27 8-22 2-12z" fill="#FEB730"/>
<path transform="translate(498,1104)" d="m0 0h21l9 1 28 1 54 1 13 1v34l-5 1-5-1-36-1v66l-1 47-1 1h-38v-73l1-3 2-38h-45l-1-1 1-10 2-22z" fill="#FEB730"/>
<path transform="translate(1382,1104)" d="m0 0 7 1h17l6-1 6 4v110h60l3 3 1 3v29l-1 1-8 1h-91l-1-40-1-109z" fill="#FEB730"/>
<path transform="translate(1587,1168)" d="m0 0h253l1 1v10l-3 9-6 6-97 1-46 1-50 2h-48l-5-5-2-8v-11z" fill="#FEB730"/>
<path transform="translate(189,1168)" d="m0 0h85l21 1h80l8-1h15l10 3 4 3v17l-3 5-3 2h-189l-22-1-15-3-1-1v-16l5-6z" fill="#FEB730"/>
</svg>
