<?xml version="1.0" encoding="UTF-8"?>
<svg version="1.1" viewBox="0 0 2048 2048" width="1280" height="1280" xmlns="http://www.w3.org/2000/svg">
<path transform="translate(301,760)" d="m0 0 7 1 4 7 15 32 16 38 11 26 17 40 16 39 11 24 13 30 11 25 4 7 2 8 4 6 4 11 5 15v2h-65l-7-11-11-22-3-9h-102l-2 6-13 27-5 9-6 1h-52l-3-3v-16l32-72 18-41 17-38 5-11 6-16 13-28 12-28 13-30 9-21zm2 153-9 19-10 24-9 20v1h55l-1-7-7-19-14-33-2-4z" fill="#EE6C00"/>
<path transform="translate(1074,835)" d="m0 0h12l7 2 9 8 5 6 8 5 7 10 14 15 25 25 9 11 8 8 7 8 9 9 8 6v-77l1-26 7-8h47l6 5 3 8v212l-8 9-4 1h-25l-17-17-7-4-8-12-48-48-8-10-17-17-1-2v64l-1 33-5 11-7 2h-39l-8-5-3-4v-217l8-9z" fill="#010100"/>
<path transform="translate(914,780)" d="m0 0 7 1 15 34 15 36 18 43 15 35 13 31 13 32 13 30 11 26v15l-3 6-1 1h-52l-6-8-15-32v-2h-85l-2 10-6 15-8 15-4 3-18 1h-25l-9-4-2-3v-13l6-18 14-32 11-25 12-29 18-41 13-30 19-45 12-28 9-22zm1 151-15 30-5 11v7h42l-4-14-15-34z" fill="#010100"/>
<path transform="translate(1710,830)" d="m0 0h26l19 3 15 5 22 11 17 13 1 2v8l-17 17-7 8-10 10-10-2-14-8-12-5h-27l-13 5-12 7-11 11-10 20-1 4v25l7 16 10 14 10 8 16 8 3 1h25l12-4 19-10 2-2 6 1 8 7 27 27 1 6-7 7-5 6-14 9-20 10h-10v3l-15 2h-30l-19-3-15-5-21-12-9-5-7-8-9-10-8-11-8-13-7-16-3-11v-56l7-21 10-18 11-14 16-16 24-14 9-4 21-5z" fill="#020101"/>
<path transform="translate(451,837)" d="m0 0h154l9 9 2 4v27l-6 11-5 4h-53v168l-7 10-5 2h-39l-9-6-4-8v-56l2-3v-105h-29l-18-1-8-2-6-4-6-9v-28l7-10 3-2z" fill="#010000"/>
<path transform="translate(1297,837)" d="m0 0h173l7 4 3 6v30l-6 11-6 4-25 1h-28v108l-1 61-4 6-4 3-4 1h-37l-8-5-1-2-1-18-1-123-1-30-51-2-9-6-5-9v-26l5-9z" fill="#010000"/>
<path transform="translate(649,837)" d="m0 0h42l5 3 4 7v170l4-1h62l7 2 6 5 4 10v20l-4 9-7 8h-124l-8-9v-147l1-54 1-15z"/>
<path transform="translate(717,1145)" d="m0 0h64l13 3 21 12 5 5 7 11 3 7v28l-6 14-10 10-7 2 14 25 8 11 1 2v13h-38l-10-15-12-17-3-4v-4l-7 1h-10v28l-1 10-1 1h-34l-5-6v-129zm33 39-1 4v28l1 1h22l16-3 3-7 1-5v-8l-3-3-6-7z" fill="#EE6C00"/>
<path transform="translate(1512,837)" d="m0 0h40l10 8v218l-5 6-8 3h-33l-7-3-4-8v-211z"/>
<path transform="translate(1579,1217)" d="m0 0h338v19l-4 9h-2l-1 4-4 3-13 1-149 2-51 2h-108l-7-8-1-4v-24z" fill="#EE6C00"/>
<path transform="translate(141,1217)" d="m0 0h285l9 3 4 3v27l-4 6-2 1h-278l-18-3-6-2v-25l6-8z" fill="#EE6C00"/>
<path transform="translate(1197,1145)" d="m0 0h87l9 7 3 5v11l-5 12-2 2-14 2h-49v20h52l4 4v19l-3 9h-53v19h62l5 7v20l-4 6h-97l-4-5v-132z" fill="#EE6C00"/>
<path transform="translate(911,1148)" d="m0 0h36l8 13 13 28 15 35 11 22 5 13 4 10v19h-35l-7-11-4-10v-2h-56l-1 9-7 14h-36l-1-2v-9l6-17 10-22 13-32 14-34 11-23zm15 46-5 12-7 23 1 1h27l-1-9-8-19-4-8z" fill="#EE6C00"/>
<path transform="translate(1013,1145)" d="m0 0h32l9 19 7 18 17 40 3 8h1l3-13 13-32 6-15 5-13 5-9 3-3h26l11 9v8l-11 23-18 44-12 26-11 26-5 7h-35l-2-4v-3l-3-1-11-28-10-25-13-29-10-24-3-6v-20z" fill="#EE6C00"/>
<path transform="translate(601,1145)" d="m0 0h68l9 11v13l-4 10-3 3-21 2-13 1-2 78-1 20-5 5h-28l-4-6v-95h-17l-3-1-17-2-11-9-1-2v-14l9-11 2-1 14-1z" fill="#EE6C00"/>
<path transform="translate(1348,1145)" d="m0 0h19l8 7 1 5v98h59l7 7v17l-6 9h-93l-1-3h-2v-134z" fill="#EE6C00"/>
</svg>
