<?xml version="1.0" encoding="UTF-8"?>
<svg version="1.1" viewBox="0 0 2048 2048" width="1280" height="1280" xmlns="http://www.w3.org/2000/svg">
<path transform="translate(302,760)" d="m0 0 5 1 3 4 11 24 10 22 12 29 5 12 13 30 18 43 5 13 7 15 16 37 14 31 11 25 5 10-1 8-6 7h-53l-7-10-11-23-4-9h-102l-8 17-9 19-4 6-14 1h-40l-4-1-2-3v-13l14-32 24-54 18-41 9-20 6-12 7-20 5-10 14-31 7-17 11-25 10-24zm1 153-7 15-9 22-7 15-5 12h56l-6-18-15-36-4-9z" fill="#FF8400"/>
<path transform="translate(1076,835)" d="m0 0 15 1 10 9 5 6 8 5 7 10 15 16 22 22 7 8 10 11 7 8 10 10 10 8 1-103 8-9h45l7 6 3 9v209l-9 10-8 1h-19l-17-17-7-4-8-12-47-47-9-11-18-18v-2h-2l1 31-1 39v26l-6 13-2 1-10 1h-32l-8-5-4-5v-215l9-10z"/>
<path transform="translate(915,780)" d="m0 0 5 1 4 8 12 28 8 19 18 43 16 38 13 30 14 35 12 28 16 37 1 3v10l-2 7-3 3h-50l-6-7-12-26-4-9h-85l-3 11-5 13-8 15-5 4-40 1-9-3-4-5v-10l4-13 10-24 13-29 18-43 18-41 13-30 11-26 10-24 13-30 5-13zm1 150-10 19-11 24v6h42l-3-11-10-23-6-14z"/>
<path transform="translate(1714,830)" d="m0 0h17l21 3 17 5 23 12 16 12 2 4v5l-13 13-7 8-15 15-10-3-14-8-12-5h-25l-12 4-14 8-12 12-9 18-2 7v23l6 15 10 15 11 9 14 8 7 2h23l13-4 17-9 5-4 6 2 34 34 1 4-12 13-10 7-21 11-5 2h-8v3l-25 2h-14l-23-3-16-5-20-12-9-4-9-10-7-8-8-10-9-15-7-15-4-15v-51l7-22 10-18 10-13 17-17 20-12 12-6 20-5z"/>
<path transform="translate(474,837)" d="m0 0h130l9 9 3 5v25l-6 11-6 5h-49l-3-1v168l-7 10-3 2-7 1h-33l-9-6-5-10v-53l3-4-1-105-39-1-13-1-8-5-6-8-1-3v-25l6-9 5-4z" fill="#010100"/>
<path transform="translate(1298,837)" d="m0 0h171l7 4 4 7v27l-5 11-6 5-3 1-51 1-1 168-4 6-5 4-9 1h-29l-8-4-2-2-1-4-1-40v-92l-1-37-51-1-9-6-5-8-1-4v-22l5-9z"/>
<path transform="translate(651,837)" d="m0 0h39l6 4 4 7v169l24-1h36l11 1 8 7 3 7 1 6v14l-3 9-9 10h-122l-9-10v-120l2-94 7-8z" fill="#010000"/>
<path transform="translate(718,1145)" d="m0 0h60l15 3 15 9 9 5 7 10 4 8 2 5v24l-6 15-11 11-7 2 7 12 6 11 10 14 1 4v10h-37l-17-25-9-12v-3l-17 1-1 37-2 2h-32l-5-5-1-4v-125zm32 39-1 5v27l1 1h20l18-3 2-3 2-10v-7h-2l-2-5-5-5z" fill="#FF8400"/>
<path transform="translate(1513,837)" d="m0 0h38l10 8 1 2v215l-6 7-9 3h-29l-8-3-5-10v-208l6-11z"/>
<path transform="translate(1580,1217)" d="m0 0h336l1 1v16l-4 11h-2v2l-6 5-40 1-115 1-80 3h-84l-7-7-2-8v-19z" fill="#FF8400"/>
<path transform="translate(142,1217)" d="m0 0h281l11 3 5 4v25l-4 6-3 2h-269l-19-2-12-3-1-1v-23l6-8z" fill="#FF8400"/>
<path transform="translate(1198,1145)" d="m0 0h85l9 7 4 6v8l-5 13-3 3-22 2h-40v20h51l5 5v15l-3 11-2 1h-51v19h61l6 8v18l-5 7h-95l-5-6v-130z" fill="#FF8400"/>
<path transform="translate(912,1148)" d="m0 0h34l8 12 5 11 5 12 4 7 4 10 11 26 5 10 4 6 2 7 4 9 5 13v17h-34l-6-8-5-12-1-3h-56l-2 10-7 13h-34l-2-3 1-10 5-13 10-22 5-13 10-24 10-25 7-15 7-14zm14 45-4 11-4 13-4 12 1 1h28l-1-6-5-11-7-18z" fill="#FF8400"/>
<path transform="translate(1014,1145)" d="m0 0h30l8 16 6 16 18 42 5 13 1 1 3-14 5-13 5-12 8-19 4-12 6-13 5-5h24l12 10-1 9-10 19-7 18-4 9-5 13-7 15-8 18-11 25-5 7h-33l-3-5v-2h-2l-6-15-6-16-7-18-5-11-11-25-7-17-6-12v-18z" fill="#FF8400"/>
<path transform="translate(615,1145)" d="m0 0h53l5 6 4 4 1 4v8l-4 11-4 4-34 2-2 98-6 6h-26l-3-4v-2h-2v-96l-2 1h-12l-7-2-15-1-11-9-2-3v-12l9-11 1-1 7-1z" fill="#FF8400"/>
<path transform="translate(1349,1145)" d="m0 0h17l9 8 1 22v80h58l8 8v15l-5 8-2 2h-92l-1-3h-2v-133z" fill="#FF8400"/>
<path transform="translate(1816,910)" d="m0 0h1v6h-1z" fill="#FDFDFD"/>
</svg>
