<?xml version="1.0" encoding="UTF-8"?>
<svg version="1.1" viewBox="0 0 2048 497" width="1280" height="1280" xmlns="http://www.w3.org/2000/svg">
<path transform="translate(1142,11)" d="m0 0h6l18 18 6 9 15 15 10 14 13 13 7 10 16 16 8 11 9 10 11 11 7 10 3 3v2h2l4 7 1-146 3-1h50l1 1v243h-19l-5-1-2 1h-14l-12-12-7-8-9-11-6-8-6-7-6-8-13-14-8-11-18-18-7-10-9-10-6-7-4-6-12-12-2-1v143h-50l-1-152-1-19-2-22v-42l1-9 2-1 11 1 7-1 3 1z" fill="#0E0D0D"/>
<path transform="translate(899,12)" d="m0 0 4 1 39 1 21 42 11 25 9 19 7 15 9 20 11 25 13 30 11 24 9 20 9 17 1 6h-61l-4-5-10-22-5-17v-1l-67-1-33-1-5 5-4 9-3 9-4 8-3 9-6 7-8-1-3-1h-15l-8 2h-23l1-6 5-6 5-13 10-22 4-10 12-25 7-17 5-10 21-49 13-30 8-16 9-20zm22 77-4 6-11 25-7 16-5 12-3 8 1 5 52 1 8 1-1-6-7-15-7-19-9-21-5-13z" fill="#0E0D0D"/>
<path transform="translate(133,11)" d="m0 0h39l8 16 9 21 9 20 7 16 10 19 12 27 14 29 8 19 11 26 7 20 11 26 2 6-1 1h-56l-7-15-9-21-6-11-1-1h-10l-1 1-9 1h-20l-21-2-19-1h-15l-6 13-12 25-6 10-5 1-2-2h-48l1-4 4-8 4-10 5-12 13-29 7-17 5-13 10-23 7-16 5-11 16-34 9-20 6-15 6-14 5-13zm18 74-4 9-3 13-6 17-8 16-9 17 1 4 56 1 4 2 1-3-1-10-6-12-10-25-13-28z" fill="#0E0D0D"/>
<path transform="translate(1912,7)" d="m0 0h21l12 3 10 1 3 2 10 2 18 10 4 3 5 3 9 7 6 4 16 16 1 4-11 4-10 6-7 8-2 5-5 6-3 6-7-4-9-8v-2l-4-2-10-7-17-8-3-1h-39l-3 2-9 2-5 3-8 6-16 16-6 13-3 13-2 8v13l3 9 2 10 7 14 9 10 8 7 15 8 9 2v2h35l7-1 3-2 7-1 17-9 9-9 1-6h3l7 8 11 11 15 8 11 7 3 4-5 4-14 8-13 9-11 7-11 6-14 6-16 4-23 1h-12l-23-1-3-2-9-2-11-4-10-6-9-6-3-3-6-3-9-9-8-7-8-9-8-13-5-12-5-14-2-12-2-5v-33l3-6 1-13 8-19 7-12 6-8 23-23 10-6 16-9 18-7 7-1 2-2 16-2z" fill="#0E0D0D"/>
<path transform="translate(305,11)" d="m0 0h92l5 1 23 1 94 1v53l-3 1-6-2-18-1h-51l-1 192h-56l-1-1v-50l2-32v-102l-2-7h-67l-5 3-3-1-1-49-2-4z" fill="#0E0D0D"/>
<path transform="translate(1397,11)" d="m0 0h68l7 1 28 1h28l9-2h37l20 1 8 1 2 2v48l-1 1h-74l1 144 2 24v20l-4 5h-6l-2-2h-16l-11 2-17 1-1-1-1-173-1-17-1-2h-70l-5 1-1-1v-53z" fill="#0F0E0E"/>
<path transform="translate(584,11)" d="m0 0h50l1 67 2 32v72l-2 15v5l22 1 98 1 1 4-1 25-2 12-1 12-4-1-1-1h-54l-14 2h-95l-1-2v-239z" fill="#100F0F"/>
<path transform="translate(1666,11)" d="m0 0h8l4 2 19-2h21l2 2v32l2 57v51l-2 33v39l2 18v10l-10 1-36 1-3 2h-8v-245z" fill="#0F0E0E"/>
<path transform="translate(677,329)" d="m0 0 4 1 1 1 69 1 8 2 14 7 14 14 7 14 1 4v26l-1 2h-2l-1 9-11 11-10 5 2 6 10 16 9 12 4 6 3 4 1 8-6 1h-37l-4-9-7-11-6-11-5-7-4-7-1-1h-16v45l-1 1h-39v-27l2-13-1-23-1-9v-13l1-8v-27l-1-5v-21zm32 35v36h41l7-6 2-3v-9l-5-10-4-4-6-3-23-1z" fill="#100F0F"/>
<path transform="translate(915,332)" d="m0 0h18l5 10 10 24 12 24 5 13 5 11 14 34 10 21 2 9-2 1h-16l-2-2h-6l-4 2h-9l-4-4-3-10-8-16-1-1h-7l-3 2-42 1-2 6-2 5-1 16-1 1h-41l-1-4 4-10 5-15 5-11 5-12 7-15 10-27 9-21 8-16 4-9 2-6zm0 53-5 5-8 23v8l5-2h27l-1-5-10-18-5-10z" fill="#0E0D0D"/>
<path transform="translate(1212,329)" d="m0 0 6 1 1 1 89 1h11l1 2-1 2-2 29-3-1-1-2-67-1v28l35 1 13 2h10v-2h3v23l-2 8h-9l-4-1-43-1 1 27 67 1 1 1v30l-5 1h-99l-1-21-1-113-2-13z" fill="#0F0E0E"/>
<path transform="translate(1125,329)" d="m0 0 6 1 1 1 27 1 1 4-3 8-4 13-6 14-7 20-6 16-6 13-5 13-4 10-7 19-4 11-4 8-4 1v-2l-28-1-8-16-8-20-5-13-6-13-6-16-5-12-8-20-6-16-3-11v-11l34 1 2 6 6 17 9 20 8 18 7 18 4 9v2h4l3-9 5-14 6-13 5-12 6-14 5-14 2-5 1-10z" fill="#0E0D0D"/>
<path transform="translate(498,329)" d="m0 0h17l23 2 71 1 14 1v33l-4 1-3-1-16-1h-23l-1 113-1 1h-38v-70l2-7 1-37h-45l-1-3 2-9z" fill="#0E0D0D"/>
<path transform="translate(1382,329)" d="m0 0 7 1 1 1h12l10-2 5 3 1 3v108h59l4 4 1 4v25l-2 2-9 1h-89l-1-142-1-5z" fill="#111010"/>
<path transform="translate(1587,393)" d="m0 0h253l1 1-1 12-3 7-5 5-119 1-78 3h-43l-4-2-2-4-2-11 1-8z" fill="#0E0D0D"/>
<path transform="translate(190,393)" d="m0 0h82l37 2h60l15-2h13l8 2 6 3 1 1v14l-2 6-4 3h-186l-24-1-16-3-1-1v-14l4-6z" fill="#151414"/>
</svg>
