<?xml version="1.0" encoding="UTF-8"?>
<svg version="1.1" viewBox="0 0 2048 2048" width="1280" height="1280" xmlns="http://www.w3.org/2000/svg">
<path transform="translate(1140,786)" d="m0 0h9l18 18 8 11 14 14 10 14 12 12 9 12 15 15 12 16 15 15 9 13v2l4 2 1-39 1-70 1-32 1-1h53v245h-41l-15-15-11-14-13-16-9-11-9-10-9-11-7-8-12-12-12-16-7-7-9-12-10-10-1 142h-50l-1-36-1-78-1-53-1-13v-63l2-3z" fill="#0F0E0E"/>
<path transform="translate(898,788)" d="m0 0h26l18 1 9 16 15 30 13 30 14 29 36 82 18 39 5 9 1 9h-61l-6-7-9-21-4-17h-101l-4 5-13 32-6 7-33 1h-24l-1-5 8-15 12-28 15-33 28-63 13-31 11-24 12-26zm22 77-9 17-17 39-3 8 1 7 1 1 35 1h24l-3-12-7-16-13-33-5-11z" fill="#0F0E0E"/>
<path transform="translate(133,786)" d="m0 0h39l8 14 19 43 11 24 9 17 12 27 14 30 13 31 9 24 12 30 1 7h-57l-9-17-10-23-3-5v-3l-14 2h-34l-10-1h-38l-17 35-6 10-1 1h-28l-26-1-1-4 16-37 20-47 12-29 16-35 15-32 12-28 11-27zm18 75-5 10-7 23-8 18-10 19 1 5 1 1 59 2 1-1-1-13-10-22-9-22-9-19z" fill="#0F0E0E"/>
<path transform="translate(1911,782)" d="m0 0h24l21 4 8 3 11 4 16 10 14 10 11 9 10 10 1 6-12 5-11 8-14 21-6-1-10-9-1-4-7-2-10-7-13-6h-45l-13 4-11 9-14 14-6 14-4 16v20l6 19 8 14 10 10 10 6 7 4 10 3v2l43-2 8-3 7-3 12-7 7-8 2-5 5 1 7 8 9 9 22 13 7 6-2 4-15 10-10 6-14 9-14 8-15 6-12 3-11 1h-40l-10-1-8-3-12-4-13-7-22-16-17-17-7-9-8-15-7-20-3-14v-38l2-7 2-12 10-22 8-12 16-17 9-9 23-13 15-7 14-4 6-2z" fill="#100F0E"/>
<path transform="translate(305,786)" d="m0 0h95l19 1 64 1 36 1v54l-78-2v149l-1 43h-57v-191l-75 1-2-36z" fill="#0F0E0E"/>
<path transform="translate(1396,786)" d="m0 0h190l17 2 1 1v51h-75l1 35 1 72 1 47v35l-4 4h-32l-11 1h-10l-1-35-1-94-1-63h-39l-37-1z" fill="#0F0E0E"/>
<path transform="translate(585,786)" d="m0 0h49l1 13 2 69v98l-1 11 81 1 38 1 1 1v23l-3 26-1 3-69 1h-100v-245z" fill="#0F0E0E"/>
<path transform="translate(676,1104)" d="m0 0 17 1 46 1 15 1 10 3 10 6 14 14 7 14v32l-3 1-1 10-11 11-5 3h-3l5 12 10 15 11 15 1 4v7l-1 1h-42l-5-8-8-14-13-21-1-2-16-1v46h-40v-148zm33 36v35l1 1h39l9-7 1-2v-10l-6-11-8-5-6-1z" fill="#887E67"/>
<path transform="translate(1665,786)" d="m0 0h54l1 1 1 17 1 38v187l-4 1-41 2-3 1h-9z" fill="#0F0E0E"/>
<path transform="translate(906,1107)" d="m0 0h28l10 21 8 19 8 16 11 25 12 29 12 27 1 11h-40l-5-6-5-13-5-11h-6l-2 1-9 1h-35l-3 17-2 11h-43v-7l7-21 19-44 13-33 12-26 8-16zm8 54-5 6-7 20v9l31-2-1-7-11-20-4-6z" fill="#887E67"/>
<path transform="translate(1211,1104)" d="m0 0 22 1 67 1 19 1 1 1v14l-2 17-1 2-6-2-65-2v27h27l30 2 4-1v28l-2 4h-14l-42-2 1 2 1 23 67 2v32l-1 1h-103l-1-4-1-16-2-130z" fill="#887E67"/>
<path transform="translate(1124,1104)" d="m0 0 13 1 17 1 6 1-1 11-9 26-10 26-6 16-9 21-14 37-7 13-4 1v-2h-18l-11-1-9-17-12-31-11-26-18-46-4-12v-17h26l8 1 4 8 10 26 12 26 10 25 1 4 3 1 2-10 10-25 11-25 7-19z" fill="#887E67"/>
<path transform="translate(498,1104)" d="m0 0h28l20 1 51 1 21 1 5 1v34l-2 1-33-1-11-1v94l-1 20h-39v-75l2-31 1-8h-46l1-19 2-17z" fill="#887E67"/>
<path transform="translate(1381,1104)" d="m0 0h32l5 3v111h61l3 4v32l-3 1h-97l-1-11-1-76v-63z" fill="#887E67"/>
<path transform="translate(1586,1168)" d="m0 0h255v13l-4 9-4 4-31 1-88 1-59 2h-65l-5-6-1-4v-16z" fill="#887E67"/>
<path transform="translate(188,1168)" d="m0 0h212l9 3 3 2v19l-3 5-2 1h-204l-16-2-8-2v-18l5-6z" fill="#887E67"/>
</svg>
